<svg width="360" height="323" viewBox="0 0 360 323" fill="none" xmlns="http://www.w3.org/2000/svg">
<path d="M78.5026 261.338C52.4799 261.338 26.4573 261.338 0.434727 261.338C-0.144909 261.338 -0.144909 262.254 0.434727 262.254H78.5026C79.0822 262.254 79.0822 261.338 78.5026 261.338Z" fill="#1E1E1E"/>
<path d="M171.734 256.762H236.867H255.354C255.934 256.762 255.934 255.847 255.354 255.847C233.633 255.847 211.942 255.847 190.221 255.847C184.059 255.847 177.896 255.847 171.734 255.847C171.154 255.847 171.154 256.762 171.734 256.762Z" fill="#1E1E1E"/>
<path d="M260.385 256.762H310.448C311.027 256.762 311.027 255.847 310.448 255.847C293.76 255.847 277.073 255.847 260.385 255.847C259.806 255.847 259.806 256.762 260.385 256.762Z" fill="#1E1E1E"/>
<path d="M317.801 256.762H326.526C327.105 256.762 327.105 255.847 326.526 255.847C323.628 255.847 320.699 255.847 317.801 255.847C317.221 255.847 317.191 256.762 317.801 256.762Z" fill="#1E1E1E"/>
<path d="M276.708 255.725C276.708 245.475 276.708 235.194 276.708 224.943C276.708 224.364 275.792 224.364 275.792 224.943V255.725C275.792 256.305 276.708 256.305 276.708 255.725Z" fill="#FECE2F"/>
<path d="M276.434 225.401H331.652C332.232 225.401 332.232 224.486 331.652 224.486C313.257 224.486 294.83 224.486 276.434 224.486C275.855 224.486 275.855 225.401 276.434 225.401Z" fill="#FECE2F"/>
<path d="M331.377 225.706V254.993C331.377 255.573 332.292 255.573 332.292 254.993C332.292 245.231 332.292 235.468 332.292 225.706C332.292 225.096 331.377 225.096 331.377 225.706Z" fill="#FECE2F"/>
<path d="M281.56 228.482V250.478C281.56 251.058 282.475 251.058 282.475 250.478C282.475 243.156 282.475 235.804 282.475 228.482C282.475 227.903 281.56 227.903 281.56 228.482Z" fill="#FECE2F"/>
<path d="M288.667 228.665V248.617C288.667 249.197 289.582 249.197 289.582 248.617C289.582 241.966 289.582 235.316 289.582 228.665C289.582 228.086 288.667 228.086 288.667 228.665Z" fill="#FECE2F"/>
<path d="M296.509 228.116V247.885C296.509 248.464 297.425 248.464 297.425 247.885C297.425 241.295 297.425 234.706 297.425 228.116C297.425 227.537 296.509 227.537 296.509 228.116Z" fill="#FECE2F"/>
<path d="M304.532 229.428V249.563C304.532 250.142 305.447 250.142 305.447 249.563C305.447 242.851 305.447 236.14 305.447 229.428C305.447 228.848 304.532 228.818 304.532 229.428Z" fill="#FECE2F"/>
<path d="M312.341 229.794V250.508C312.341 251.088 313.256 251.088 313.256 250.508C313.256 243.614 313.256 236.719 313.256 229.794C313.256 229.214 312.341 229.214 312.341 229.794Z" fill="#FECE2F"/>
<path d="M322.04 229.977V249.563C322.04 250.142 322.955 250.142 322.955 249.563C322.955 243.034 322.955 236.506 322.955 229.977C322.955 229.398 322.04 229.398 322.04 229.977Z" fill="#FECE2F"/>
<path d="M328.57 230.923V248.464C328.57 249.044 329.485 249.044 329.485 248.464C329.485 242.607 329.485 236.78 329.485 230.923C329.485 230.313 328.57 230.313 328.57 230.923Z" fill="#FECE2F"/>
<path d="M255.841 77.3805H326.435H346.509C347.088 77.3805 347.088 76.4653 346.509 76.4653C322.988 76.4653 299.436 76.4653 275.915 76.4653C269.234 76.4653 262.522 76.4653 255.841 76.4653C255.231 76.4653 255.231 77.3805 255.841 77.3805Z" fill="#FECE2F"/>
<path d="M256.299 76.6483C256.299 74.6348 256.299 72.6519 256.299 70.6384C256.299 70.0588 255.384 70.0588 255.384 70.6384V76.6483C255.384 77.2585 256.299 77.2585 256.299 76.6483Z" fill="#FECE2F"/>
<path d="M255.841 71.3706H325.642H345.685C346.265 71.3706 346.265 70.4554 345.685 70.4554C322.408 70.4554 299.131 70.4554 275.885 70.4554C269.204 70.4554 262.522 70.4554 255.841 70.4554C255.231 70.4554 255.231 71.3706 255.841 71.3706Z" fill="#FECE2F"/>
<path d="M345.503 71.1876V77.1975C345.503 77.7771 346.418 77.7771 346.418 77.1975C346.418 75.184 346.418 73.201 346.418 71.1876C346.418 70.6079 345.503 70.6079 345.503 71.1876Z" fill="#FECE2F"/>
<path d="M265.389 47.3615C265.664 49.436 265.969 51.5715 265.664 53.6765C265.389 55.6899 264.504 57.4899 263.742 59.3508C262.277 62.8591 261.515 66.52 261.545 70.3028C261.545 70.8825 262.46 70.8825 262.46 70.3028C262.46 65.9708 263.559 62.1269 265.236 58.1915C265.847 56.7577 266.396 55.2933 266.609 53.7375C266.884 51.602 266.609 49.497 266.335 47.3615C266.213 46.7818 265.297 46.7818 265.389 47.3615Z" fill="#FECE2F"/>
<path d="M266.121 47.758C267.128 47.2699 268.257 47.0869 269.386 47.3309C270.026 47.4835 270.148 47.8496 270.331 48.3987C270.423 48.6732 270.453 48.7953 270.636 49.0393C271.003 49.4969 271.643 48.8563 271.277 48.3987C271.033 48.0936 271.277 47.4835 270.941 47.1174C270.606 46.6903 269.935 46.5377 269.447 46.4462C268.135 46.2022 266.823 46.4157 265.633 46.9954C265.115 47.2089 265.572 48.0021 266.121 47.758Z" fill="#FECE2F"/>
<path d="M270.362 48.0326C270.088 51.724 271.033 54.9882 272.742 58.222C274.786 62.0964 275.121 66.1233 275.243 70.4553C275.274 71.035 276.189 71.035 276.159 70.4553C276.037 66.764 275.915 62.9506 274.389 59.5338C273.596 57.7339 272.528 56.117 271.949 54.2255C271.308 52.2121 271.125 50.1376 271.278 48.0326C271.339 47.453 270.393 47.453 270.362 48.0326Z" fill="#FECE2F"/>
<path d="M284.822 70.1808C285.249 69.3571 284.853 68.4724 285.402 67.7708C286.256 66.7335 288.971 66.764 290.192 66.642C292.907 66.3674 295.591 66.3979 298.306 66.6115C301.022 66.825 303.737 67.1911 306.482 67.3132C307.825 67.3742 309.167 67.3437 310.509 67.3132C311.852 67.2827 315.543 67.7098 314.14 69.9978C313.835 70.4859 314.628 70.974 314.933 70.4554C316.184 68.4419 314.109 66.642 312.187 66.3979C310.509 66.1844 308.77 66.459 307.062 66.3979C305.018 66.3369 302.974 66.1234 300.93 65.9098C297.056 65.5437 293.212 65.3302 289.337 65.7878C287.995 65.9403 285.982 65.9403 284.822 66.703C283.663 67.4657 284.548 68.625 284.029 69.6622C283.755 70.2418 284.548 70.73 284.822 70.1808Z" fill="#FECE2F"/>
<path d="M295.988 65.6962C296.263 65.0251 296.11 64.3539 296.324 63.6827C296.873 61.9743 299.039 62.493 300.351 62.493C302.791 62.493 305.202 62.493 307.642 62.5235C312.493 62.5235 317.343 62.554 322.225 62.554C322.072 62.432 321.919 62.3404 321.797 62.2184C322.133 63.7743 322.408 65.3301 322.621 66.9165C322.682 67.4961 323.597 67.4961 323.536 66.9165C323.323 65.2386 323.048 63.5912 322.682 61.9744C322.652 61.7913 322.438 61.6388 322.255 61.6388C316.398 61.6083 310.51 61.6083 304.652 61.5778C303.249 61.5778 301.815 61.5778 300.412 61.5778C299.344 61.5778 298.124 61.3947 297.056 61.6388C295.073 62.0964 295.775 64.0183 295.195 65.4522C294.89 66.0013 295.775 66.2453 295.988 65.6962Z" fill="#FECE2F"/>
<path d="M314.629 68.0453C317.283 68.1978 319.937 68.1368 322.56 67.8317C323.14 67.7707 323.14 66.8555 322.56 66.9165C319.906 67.2216 317.283 67.2826 314.629 67.1301C314.049 67.069 314.049 67.9843 314.629 68.0453Z" fill="#FECE2F"/>
<path d="M314.539 62.1574C315.149 63.7438 315.424 65.3912 315.363 67.0996C315.332 67.6792 316.247 67.6792 316.278 67.0996C316.339 65.2996 316.034 63.5912 315.424 61.9133C315.21 61.3642 314.325 61.6083 314.539 62.1574Z" fill="#FECE2F"/>
<path d="M334.183 42.6634V50.2902C334.183 52.7002 334.366 55.2323 333.908 57.6119C333.481 59.8999 332.261 61.7609 331.04 63.6828C329.729 65.8183 328.539 68.0148 327.441 70.2723C327.197 70.791 327.99 71.2791 328.234 70.73C329.393 68.3199 330.674 65.9708 332.108 63.6828C333.267 61.8524 334.366 60.022 334.762 57.8559C335.159 55.6594 335.067 53.4019 335.067 51.2054C335.067 48.3682 335.067 45.5006 335.067 42.6634C335.098 42.0838 334.183 42.0838 334.183 42.6634Z" fill="#FECE2F"/>
<path d="M334.946 43.243C336.441 42.4193 338.118 42.4498 339.583 43.304C340.101 43.6091 340.559 42.8159 340.04 42.5108C338.302 41.4736 336.227 41.4431 334.488 42.4498C333.97 42.7244 334.427 43.5175 334.946 43.243Z" fill="#FECE2F"/>
<path d="M338.851 42.9684C338.851 45.7751 338.82 48.6122 338.82 51.4189C338.82 53.6764 338.607 56.056 338.912 58.3135C339.217 60.449 340.376 62.0354 341.627 63.7133C343.183 65.7572 344.281 67.8927 344.83 70.4248C344.952 71.0045 345.837 70.7604 345.715 70.1808C345.288 68.1368 344.495 66.2149 343.335 64.476C342.054 62.554 340.315 60.9371 339.888 58.5576C339.43 56.056 339.735 53.3103 339.735 50.8088C339.735 48.1851 339.766 45.5615 339.766 42.9379C339.766 42.3888 338.851 42.3888 338.851 42.9684Z" fill="#FECE2F"/>
<path d="M290.558 87.1427V121.585C290.558 122.165 291.474 122.165 291.474 121.585C291.474 110.115 291.474 98.6134 291.474 87.1427C291.474 86.5326 290.558 86.5326 290.558 87.1427Z" fill="#FECE2F"/>
<path d="M291.687 87.2343H339.37C339.949 87.2343 339.949 86.3191 339.37 86.3191C323.475 86.3191 307.581 86.3191 291.687 86.3191C291.107 86.3191 291.107 87.2343 291.687 87.2343Z" fill="#FECE2F"/>
<path d="M291.138 121.982H336.746C337.326 121.982 337.326 121.067 336.746 121.067C321.554 121.067 306.361 121.067 291.138 121.067C290.528 121.067 290.528 121.982 291.138 121.982Z" fill="#FECE2F"/>
<path d="M338.363 87.4173V121.524C338.363 122.104 339.278 122.104 339.278 121.524C339.278 110.145 339.278 98.7965 339.278 87.4173C339.278 86.8377 338.363 86.8377 338.363 87.4173Z" fill="#FECE2F"/>
<path d="M336.472 122.134H338.333C338.913 122.134 338.913 121.219 338.333 121.219C337.723 121.219 337.082 121.219 336.472 121.219C335.893 121.219 335.893 122.134 336.472 122.134Z" fill="#FECE2F"/>
<path d="M294.737 97.5152C307.978 97.5457 321.248 97.5762 334.488 97.6067C335.068 97.6067 335.068 96.6915 334.488 96.6915C321.248 96.661 307.978 96.6305 294.737 96.5999C294.158 96.5999 294.158 97.5152 294.737 97.5152Z" fill="#FECE2F"/>
<path d="M295.99 106.454C308.803 106.423 321.586 106.393 334.399 106.362C334.979 106.362 334.979 105.447 334.399 105.447C321.586 105.478 308.803 105.508 295.99 105.539C295.411 105.539 295.411 106.454 295.99 106.454Z" fill="#FECE2F"/>
<path d="M296.721 115.362H334.885C335.465 115.362 335.465 114.447 334.885 114.447C322.164 114.447 309.442 114.447 296.721 114.447C296.141 114.447 296.141 115.362 296.721 115.362Z" fill="#FECE2F"/>
<path d="M302.852 97.1796V115.026C302.852 115.606 303.767 115.606 303.767 115.026C303.767 109.077 303.767 103.129 303.767 97.1796C303.767 96.6 302.852 96.6 302.852 97.1796Z" fill="#FECE2F"/>
<path d="M313.623 97.4542V114.416C313.623 114.996 314.538 114.996 314.538 114.416C314.538 108.772 314.538 103.098 314.538 97.4542C314.538 96.844 313.623 96.844 313.623 97.4542Z" fill="#FECE2F"/>
<path d="M324.269 97.0576V114.294C324.269 114.874 325.184 114.874 325.184 114.294C325.184 108.559 325.184 102.823 325.184 97.0576C325.184 96.478 324.269 96.478 324.269 97.0576Z" fill="#FECE2F"/>
<path d="M333.941 97.3321V114.569C333.941 115.148 334.856 115.148 334.856 114.569C334.856 108.833 334.856 103.098 334.856 97.3321C334.856 96.722 333.941 96.722 333.941 97.3321Z" fill="#FECE2F"/>
<path d="M298.217 107.827C297.027 108.803 295.776 110.359 296.631 111.976C296.936 112.555 297.454 113.013 298.125 113.104C298.98 113.226 299.651 112.647 300.23 112.098C300.658 111.701 300.017 111.03 299.59 111.457C299.132 111.884 298.614 112.403 297.973 112.098C297.515 111.884 297.271 111.335 297.271 110.847C297.271 109.871 298.156 109.077 298.858 108.498C299.315 108.101 298.675 107.461 298.217 107.827Z" fill="#FECE2F"/>
<path d="M308.648 111.457C307.519 110.938 307.275 109.352 308.526 108.772C309.289 108.437 309.563 109.352 309.655 109.932C309.746 110.42 309.502 111.671 308.709 111.152C308.221 110.847 307.763 111.64 308.252 111.945C309.106 112.494 310.174 111.915 310.509 111.03C310.753 110.328 310.54 109.596 310.296 108.925C310.113 108.406 309.899 107.949 309.35 107.766C308.282 107.461 307.153 108.406 306.848 109.382C306.482 110.511 307.123 111.732 308.16 112.22C308.709 112.494 309.167 111.701 308.648 111.457Z" fill="#FECE2F"/>
<path d="M300.261 107.735C300.2 107.644 300.2 107.521 300.322 107.491C300.23 107.43 300.139 107.399 300.047 107.338C300.169 107.674 299.956 108.04 299.956 108.406C299.956 108.65 300.078 108.894 300.291 109.047C300.749 109.382 301.359 109.199 301.603 108.711C301.725 108.437 301.329 108.223 301.207 108.467C300.963 108.955 300.352 108.742 300.413 108.223C300.444 107.888 300.597 107.582 300.475 107.216C300.444 107.094 300.322 107.003 300.2 107.064C299.834 107.186 299.62 107.644 299.864 107.979C300.017 108.223 300.413 107.979 300.261 107.735Z" fill="#FECE2F"/>
<path d="M310.908 107.552C311.213 107.491 311.488 107.399 311.793 107.338C312.067 107.277 311.945 106.82 311.671 106.911C311.366 106.972 311.091 107.064 310.786 107.125C310.512 107.186 310.634 107.644 310.908 107.552Z" fill="#FECE2F"/>
<path d="M310.753 107.552C310.814 107.705 310.844 107.888 310.905 108.04C310.936 108.132 311.027 108.223 311.119 108.223C311.272 108.193 311.485 108.162 311.607 108.223C311.668 108.254 311.729 108.315 311.729 108.376C311.729 108.437 311.668 108.376 311.699 108.406C311.516 108.193 311.18 108.498 311.363 108.742C311.638 109.047 312.187 108.803 312.187 108.406C312.187 107.827 311.546 107.735 311.119 107.796C311.18 107.857 311.272 107.918 311.333 107.979C311.272 107.827 311.241 107.644 311.18 107.491C311.119 107.125 310.692 107.247 310.753 107.552Z" fill="#FECE2F"/>
<path d="M306.544 99.3151C306.666 100.566 306.666 101.786 306.513 103.037C306.483 103.342 306.941 103.342 306.971 103.037C307.093 101.786 307.124 100.566 307.002 99.3151C306.971 99.01 306.513 99.01 306.544 99.3151Z" fill="#FECE2F"/>
<path d="M307.001 101.451C307.916 101.359 308.527 100.566 308.343 99.6507C308.282 99.3761 307.916 99.4676 307.886 99.7117C307.764 100.84 307.733 102 307.794 103.128C307.794 103.434 308.252 103.434 308.252 103.128C308.191 101.969 308.221 100.84 308.343 99.7117C308.191 99.7422 308.038 99.7422 307.886 99.7727C308.008 100.383 307.581 100.932 306.971 100.993C306.727 101.024 306.727 101.481 307.001 101.451Z" fill="#FECE2F"/>
<path d="M309.596 98.9795C309.626 98.9185 309.626 98.888 309.657 98.827C309.596 98.8575 309.504 98.8575 309.443 98.888C309.626 98.949 309.657 99.2541 309.504 99.3761C309.352 99.4676 309.352 99.7422 309.565 99.8032C309.748 99.8337 309.901 99.8642 310.084 99.8947C310.053 99.7727 309.992 99.6812 309.962 99.5591C309.84 99.7727 309.687 99.9557 309.474 100.047C309.199 100.169 309.321 100.596 309.596 100.474C309.931 100.322 310.206 100.108 310.359 99.7727C310.42 99.6507 310.389 99.4676 310.237 99.4371C310.053 99.4066 309.901 99.3761 309.718 99.3456C309.748 99.4981 309.748 99.6202 309.779 99.7727C310.298 99.4371 310.175 98.6439 309.596 98.4609C309.535 98.4304 309.443 98.4609 309.382 98.5219C309.199 98.7049 309.169 98.888 309.199 99.1015C309.199 99.4066 309.626 99.2846 309.596 98.9795Z" fill="#FECE2F"/>
<path d="M319.844 99.8033C318.44 98.827 316.366 101.146 317.128 102.518C317.464 103.129 318.257 103.434 318.898 103.129C319.508 102.854 319.752 102 319.05 101.664C319.02 101.817 319.02 101.939 318.989 102.091C319.325 102.03 319.661 101.969 319.996 101.908C320.271 101.847 320.149 101.42 319.874 101.481C319.538 101.542 319.203 101.603 318.867 101.664C318.684 101.695 318.623 102 318.806 102.091C318.959 102.518 318.867 102.762 318.562 102.793C318.44 102.854 318.288 102.854 318.166 102.823C318.013 102.793 317.83 102.701 317.739 102.61C317.311 102.213 317.403 101.603 317.678 101.176C318.044 100.566 318.898 99.7728 319.63 100.261C319.844 100.352 320.088 99.9558 319.844 99.8033Z" fill="#FECE2F"/>
<path d="M321.157 99.8032C321.218 100.261 321.279 100.749 321.34 101.206C321.37 101.451 321.431 101.695 321.431 101.908C321.431 102.061 321.401 102.183 321.401 102.335C321.309 102.762 321.035 102.793 320.669 102.488C320.699 102.213 320.272 102.061 320.241 102.366C320.15 103.067 320.882 103.525 321.462 103.098C321.797 102.854 321.919 102.457 321.95 102.061C321.98 101.329 321.797 100.535 321.706 99.8032C321.584 99.4981 321.126 99.4981 321.157 99.8032Z" fill="#FECE2F"/>
<path d="M320.609 99.4981C321.127 99.6202 321.615 99.6812 322.164 99.6507C322.47 99.6202 322.47 99.1626 322.164 99.1931C321.676 99.2236 321.219 99.1931 320.731 99.071C320.426 98.9795 320.304 99.4371 320.609 99.4981Z" fill="#FECE2F"/>
<path d="M316.062 108.65C316.184 109.626 316.184 110.572 316.062 111.548C316.031 111.853 316.489 111.823 316.519 111.548C316.641 110.542 316.641 109.535 316.489 108.528C316.458 108.254 316.031 108.376 316.062 108.65Z" fill="#FECE2F"/>
<path d="M316.397 110.755C317.526 111.121 317.861 109.81 317.861 108.986C317.861 108.681 317.434 108.711 317.404 108.986C317.312 109.993 317.251 111.03 317.221 112.067C317.221 112.372 317.678 112.372 317.678 112.067C317.709 111.03 317.77 110.023 317.861 108.986C317.709 108.986 317.556 108.986 317.404 108.986C317.404 109.505 317.343 110.572 316.519 110.328C316.214 110.237 316.092 110.694 316.397 110.755Z" fill="#FECE2F"/>
<path d="M318.169 111.274C318.199 111.579 318.23 111.884 318.199 112.159C318.199 112.281 318.321 112.372 318.443 112.403C318.596 112.403 318.779 112.433 318.931 112.433C319.236 112.433 319.236 111.976 318.931 111.976C318.779 111.976 318.596 111.945 318.443 111.945C318.535 112.037 318.596 112.098 318.687 112.189C318.687 111.884 318.687 111.579 318.657 111.304C318.626 111.182 318.565 111.091 318.413 111.06C318.26 111.06 318.138 111.152 318.169 111.274Z" fill="#FECE2F"/>
<path d="M320.882 111.793C320.577 111.365 320.424 110.877 320.394 110.328C320.394 109.993 320.424 109.169 320.73 108.925C321.37 108.376 321.645 109.932 321.675 110.298C321.706 110.572 321.706 110.877 321.645 111.152C321.614 111.365 321.309 112.372 320.821 111.731C320.638 111.487 320.333 111.823 320.485 112.067C320.974 112.677 321.736 112.25 321.98 111.67C322.316 110.786 322.194 109.413 321.645 108.65C321.096 107.888 320.455 108.345 320.18 109.047C319.784 110.023 319.936 111.152 320.516 112.006C320.638 112.281 321.035 112.037 320.882 111.793Z" fill="#FECE2F"/>
<path d="M328.875 100.261C328.387 99.8642 327.746 99.8642 327.228 100.2C326.587 100.627 326.404 101.451 326.343 102.152C326.312 102.823 326.496 103.495 327.258 103.586C328.021 103.678 328.539 103.067 328.967 102.488C329.15 102.244 328.753 102.03 328.57 102.244C328.295 102.61 327.96 103.067 327.441 103.098C326.77 103.128 326.77 102.396 326.801 101.939C326.862 101.206 327.563 99.7727 328.509 100.535C328.753 100.779 329.089 100.444 328.875 100.261Z" fill="#FECE2F"/>
<path d="M330.402 102.518C330.219 102.274 330.066 102 330.005 101.695C329.944 101.451 329.853 100.902 330.005 100.688C330.158 100.627 330.31 100.535 330.463 100.474C330.585 100.566 330.677 100.718 330.738 100.871C330.799 100.993 330.829 101.146 330.86 101.268C330.89 101.451 330.951 101.634 330.921 101.817C330.89 102.03 330.646 102.488 330.341 102.183C330.127 101.969 329.822 102.305 330.005 102.518C330.402 102.915 331.043 102.732 331.287 102.244C331.561 101.664 331.287 100.657 330.86 100.23C330.372 99.7727 329.761 100.017 329.578 100.627C329.365 101.39 329.578 102.183 330.036 102.793C330.188 102.976 330.585 102.762 330.402 102.518Z" fill="#FECE2F"/>
<path d="M331.255 99.2236C331.255 99.2541 331.255 99.2541 331.255 99.2236C331.285 99.2236 331.346 99.1931 331.407 99.1931C331.346 99.1931 331.407 99.6202 331.438 99.7117C331.468 99.7727 331.499 99.8337 331.529 99.8947C331.621 100.017 331.743 100.078 331.896 100.108C332.17 100.169 332.475 100.047 332.597 99.7727C332.719 99.4981 332.323 99.2846 332.201 99.5286C332.14 99.6812 331.926 99.6812 331.865 99.5286C331.774 99.2846 331.774 99.0405 331.438 98.9795C331.194 98.949 331.011 99.1626 331.072 99.3761C331.133 99.5897 331.407 99.6812 331.591 99.5286C331.804 99.3456 331.468 99.0405 331.255 99.2236Z" fill="#FECE2F"/>
<path d="M296.386 99.5286C296.233 101.115 296.203 102.732 296.294 104.318C296.294 104.623 296.752 104.623 296.752 104.318C296.691 102.732 296.721 101.115 296.843 99.5286C296.843 99.2235 296.386 99.2235 296.386 99.5286Z" fill="#FECE2F"/>
<path d="M296.782 100.505C297.392 100.444 297.697 100.627 297.666 101.023C297.666 101.207 297.666 101.359 297.605 101.542C297.514 101.969 297.331 102.335 296.873 102.518C296.69 102.579 296.629 102.915 296.873 102.945C297.758 103.128 298.49 103.556 299.009 104.288C299.192 104.532 299.588 104.288 299.405 104.044C298.795 103.22 298.002 102.701 296.995 102.488V102.915C298.093 102.488 298.612 100.596 297.666 99.7422C296.873 99.0405 295.653 99.9862 296.446 100.779C296.659 101.023 296.995 100.718 296.782 100.505Z" fill="#FECE2F"/>
<path d="M300.047 103.434C300.017 103.556 300.047 103.769 300.078 103.922C300.108 104.105 300.169 104.257 300.322 104.349C300.596 104.562 300.962 104.41 301.267 104.288C301.542 104.166 301.298 103.769 301.023 103.891C300.932 103.952 300.81 104.013 300.688 104.013C300.535 104.013 300.535 103.891 300.535 103.739C300.535 103.525 300.505 103.312 300.383 103.128C300.169 102.884 299.681 102.945 299.62 103.281C299.559 103.586 299.986 103.708 300.047 103.434Z" fill="#FECE2F"/>
<path d="M326.343 108.681C326.374 110.115 326.374 111.548 326.282 112.952C326.252 113.196 326.679 113.257 326.74 113.013C326.77 112.891 326.801 112.769 326.831 112.677C326.892 112.403 326.465 112.281 326.404 112.555C326.374 112.677 326.343 112.799 326.313 112.891C326.465 112.921 326.618 112.921 326.77 112.952C326.862 111.518 326.892 110.084 326.831 108.681C326.77 108.376 326.313 108.376 326.343 108.681Z" fill="#FECE2F"/>
<path d="M326.344 108.833C326.588 110.054 326.954 111.243 327.442 112.403C327.534 112.647 327.869 112.616 327.9 112.342C328.083 110.999 328.236 109.688 328.419 108.345C328.449 108.04 327.991 108.071 327.961 108.345C327.778 109.688 327.625 110.999 327.442 112.342C327.595 112.311 327.747 112.311 327.9 112.281C327.412 111.121 327.046 109.932 326.802 108.711C326.71 108.406 326.283 108.528 326.344 108.833Z" fill="#FECE2F"/>
<path d="M329.212 112.25C329.09 112.037 328.937 111.762 328.968 111.518C328.998 111.396 329.151 111.152 329.303 111.243C329.456 111.304 329.425 111.762 329.395 111.915C329.364 112.067 329.181 112.372 328.998 112.159C328.815 111.945 328.48 112.25 328.663 112.494C328.937 112.799 329.456 112.708 329.7 112.372C329.944 112.006 329.975 111.274 329.669 110.938C329.395 110.633 328.907 110.786 328.693 111.06C328.327 111.487 328.602 112.067 328.815 112.494C328.968 112.738 329.364 112.494 329.212 112.25Z" fill="#FECE2F"/>
<path d="M330.433 108.345C330.616 109.81 330.677 111.243 330.585 112.708C330.555 113.013 331.012 113.013 331.043 112.708C331.134 111.243 331.073 109.81 330.89 108.345C330.829 108.071 330.372 108.071 330.433 108.345Z" fill="#FECE2F"/>
<path d="M330.951 109.26C330.921 109.016 330.89 108.681 331.195 108.62C331.5 108.559 331.653 108.925 331.683 109.169C331.744 109.657 331.439 110.145 331.043 110.42C330.799 110.572 331.012 110.969 331.287 110.816C332.05 110.328 332.538 109.169 331.836 108.406C331.592 108.132 331.165 108.01 330.86 108.223C330.494 108.467 330.494 108.955 330.555 109.352C330.555 109.657 331.012 109.535 330.951 109.26Z" fill="#FECE2F"/>
<path d="M331.987 107.308C331.835 107.644 331.957 108.04 332.201 108.284C332.445 108.498 332.933 108.589 333.116 108.223C333.238 107.949 332.841 107.735 332.719 107.979C332.689 108.04 332.75 108.01 332.719 108.01C332.689 108.01 332.658 108.01 332.628 108.01C332.567 107.979 332.506 107.918 332.475 107.857C332.384 107.705 332.384 107.552 332.445 107.399C332.506 107.277 332.384 107.155 332.292 107.125C332.14 107.125 332.048 107.216 331.987 107.308Z" fill="#FECE2F"/>
<path d="M294.432 97.0576V114.782C294.432 115.362 295.348 115.362 295.348 114.782C295.348 108.864 295.348 102.976 295.348 97.0576C295.348 96.478 294.432 96.478 294.432 97.0576Z" fill="#FECE2F"/>
<path d="M295.011 115.362H334.732C335.311 115.362 335.311 114.447 334.732 114.447C321.492 114.447 308.251 114.447 295.011 114.447C294.432 114.447 294.432 115.362 295.011 115.362Z" fill="#FECE2F"/>
<path d="M2.60107 190.318V214.358C2.60107 214.937 3.51629 214.937 3.51629 214.358C3.51629 206.334 3.51629 198.341 3.51629 190.318C3.51629 189.738 2.60107 189.738 2.60107 190.318Z" fill="#FECE2F"/>
<path d="M4.06686 190.775H50.8038C51.3835 190.775 51.3835 189.86 50.8038 189.86C35.2147 189.86 19.6255 189.86 4.06686 189.86C3.45672 189.86 3.45672 190.775 4.06686 190.775Z" fill="#FECE2F"/>
<path d="M4.06686 215.151H48.5158C49.0954 215.151 49.0954 214.235 48.5158 214.235C33.6893 214.235 18.8933 214.235 4.06686 214.235C3.45672 214.235 3.45672 215.151 4.06686 215.151Z" fill="#FECE2F"/>
<path d="M50.0098 190.989V213.046C50.0098 213.625 50.925 213.625 50.925 213.046C50.925 205.693 50.925 198.341 50.925 190.989C50.925 190.409 50.0098 190.409 50.0098 190.989Z" fill="#FECE2F"/>
<path d="M24.353 177.81V185.376C24.353 185.955 25.2682 185.955 25.2682 185.376C25.2682 182.844 25.2682 180.342 25.2682 177.81C25.2682 177.23 24.353 177.23 24.353 177.81Z" fill="#FECE2F"/>
<path d="M25.116 178.268H55.4096C55.9892 178.268 55.9892 177.352 55.4096 177.352C45.3117 177.352 35.2139 177.352 25.116 177.352C24.5364 177.352 24.5364 178.268 25.116 178.268Z" fill="#FECE2F"/>
<path d="M25.4513 186.169H54.7382C55.3178 186.169 55.3178 185.254 54.7382 185.254C44.9759 185.254 35.2136 185.254 25.4513 185.254C24.8717 185.254 24.8717 186.169 25.4513 186.169Z" fill="#FECE2F"/>
<path d="M54.6163 179.122V185.376C54.6163 185.955 55.5315 185.955 55.5315 185.376C55.5315 183.301 55.5315 181.196 55.5315 179.122C55.5315 178.542 54.6163 178.542 54.6163 179.122Z" fill="#FECE2F"/>
<path d="M76.5824 25.0607C78.6874 24.9692 80.7618 24.7251 82.8058 24.3285C83.3855 24.2065 83.1414 23.3218 82.5618 23.4438C80.5788 23.8099 78.5958 24.054 76.5824 24.1455C75.9722 24.176 75.9722 25.0912 76.5824 25.0607Z" fill="#FECE2F"/>
<path d="M82.8045 23.7489C81.9198 20.4541 81.9198 17.0068 82.9266 13.7426C83.7808 10.9054 86.3434 5.96325 90.0958 7.73266C93.2685 9.22751 93.6956 13.7121 94.2142 16.7628C94.8549 20.3931 95.1599 24.0845 95.221 27.7758C95.221 28.3555 96.1362 28.3555 96.1362 27.7758C96.0446 23.1388 95.5565 18.5322 94.6108 13.9866C93.9702 10.9664 92.7499 6.84796 89.0585 6.48187C85.7942 6.1768 83.6282 9.41055 82.5605 12.0342C81.0351 15.8476 80.8521 20.0575 81.9198 23.993C82.0724 24.5726 82.9571 24.3285 82.8045 23.7489Z" fill="#FECE2F"/>
<path d="M76.8868 23.7489C75.758 18.8068 76.2766 13.529 78.5037 8.95296C80.4866 4.92602 84.361 0.9906 89.1201 0.899079C94.3674 0.807558 97.8757 5.47515 99.34 10.0207C100.987 15.1154 101.384 20.7287 101.354 26.0675C101.354 26.6471 102.269 26.6471 102.269 26.0675C102.299 21.1253 101.903 16.0611 100.652 11.2715C99.6756 7.51913 97.8452 3.82776 94.5199 1.63125C87.5338 -3.00584 79.9985 3.06508 77.2224 9.5631C75.2699 14.1392 74.8733 19.1729 75.9716 24.0235C76.1241 24.5726 77.0088 24.3286 76.8868 23.7489Z" fill="#FECE2F"/>
<path d="M95.342 28.4776C97.7521 29.9724 101.016 28.8131 102.054 26.22C102.267 25.6709 101.382 25.4269 101.169 25.976C100.345 28.0505 97.691 28.8742 95.8301 27.6844C95.3115 27.3793 94.8539 28.1725 95.342 28.4776Z" fill="#FECE2F"/>
<path d="M75.391 36.562V59.7779C75.391 60.3575 76.3062 60.3575 76.3062 59.7779C76.3062 52.0291 76.3062 44.3108 76.3062 36.562C76.3062 35.9823 75.391 35.9823 75.391 36.562Z" fill="#FECE2F"/>
<path d="M76.185 37.2331C85.3067 35.6772 94.2758 33.4807 103.062 30.6435C103.611 30.4605 103.367 29.5758 102.818 29.7588C94.0317 32.6265 85.0626 34.823 75.941 36.3484C75.3613 36.4399 75.6359 37.3246 76.185 37.2331Z" fill="#FECE2F"/>
<path d="M103.244 31.1927V52.9443C103.244 53.5239 104.159 53.5239 104.159 52.9443C104.159 45.6836 104.159 38.4534 104.159 31.1927C104.159 30.6131 103.244 30.6131 103.244 31.1927Z" fill="#FECE2F"/>
<path d="M76.4297 60.8151C85.4904 59.3813 94.429 57.2153 103.154 54.3476C103.703 54.1646 103.459 53.2798 102.91 53.4629C94.1849 56.3306 85.2463 58.4966 76.1857 59.9304C75.606 60.0219 75.8501 60.9066 76.4297 60.8151Z" fill="#FECE2F"/>
<path d="M89.485 44.7073C89.1799 43.9141 88.8138 43.0294 88.7833 42.1752C88.7528 41.138 89.4545 39.7652 90.6747 40.0702C92.5357 40.5278 92.0171 43.5175 91.3459 44.6768C91.0408 45.1954 91.834 45.653 92.1391 45.1344C93.1458 43.426 93.4204 39.5211 90.7358 39.094C89.668 38.9415 88.6613 39.6737 88.1732 40.6194C87.4715 42.0227 88.0511 43.6396 88.5698 44.9819C88.8138 45.5005 89.6985 45.2565 89.485 44.7073Z" fill="#FECE2F"/>
<path d="M88.7547 44.6158C88.8767 46.8123 88.9987 49.0394 89.1207 51.2359C89.1818 52.2121 89.6699 52.7612 90.7681 52.5172C91.8054 52.2731 92.324 51.3884 92.446 50.4122C92.5681 49.4055 92.2935 48.3682 92.202 47.392C92.1104 46.2327 92.1104 45.0734 92.202 43.8837C92.2325 43.304 91.3173 43.304 91.2867 43.8837C91.2257 45.0429 91.1952 46.2022 91.2867 47.392C91.3478 48.1852 92.1104 51.2664 90.8597 51.5104C89.5784 51.7545 89.9139 49.0089 89.8529 48.2462C89.7919 47.0564 89.7309 45.8361 89.6394 44.6463C89.6394 44.0362 88.7241 44.0362 88.7547 44.6158Z" fill="#FECE2F"/>
<path d="M156.541 27.5623V47.2394C156.541 47.8191 157.456 47.8191 157.456 47.2394C157.456 40.6804 157.456 34.1213 157.456 27.5623C157.456 26.9827 156.541 26.9827 156.541 27.5623Z" fill="#FECE2F"/>
<path d="M138.328 49.1919H172.618C173.198 49.1919 173.198 48.2767 172.618 48.2767C161.178 48.2767 149.768 48.2767 138.328 48.2767C137.749 48.2767 137.749 49.1919 138.328 49.1919Z" fill="#FECE2F"/>
<path d="M168.135 50.2597V65.8793C168.135 66.459 169.05 66.459 169.05 65.8793C169.05 60.6626 169.05 55.4459 169.05 50.2597C169.05 49.68 168.135 49.68 168.135 50.2597Z" fill="#FECE2F"/>
<path d="M4.67667 116.796H37.96C38.5396 116.796 38.5396 115.88 37.96 115.88C26.8554 115.88 15.7813 115.88 4.67667 115.88C4.09703 115.88 4.09703 116.796 4.67667 116.796Z" fill="#FECE2F"/>
<path d="M23.3157 115.331C23.3157 112.464 23.3157 109.627 23.3157 106.759C23.3157 106.179 22.4005 106.179 22.4005 106.759V115.331C22.4005 115.911 23.3157 115.911 23.3157 115.331Z" fill="#FECE2F"/>
<path d="M33.4739 117.833V127.931C33.4739 128.51 34.3891 128.51 34.3891 127.931C34.3891 124.575 34.3891 121.219 34.3891 117.833C34.3891 117.253 33.4739 117.253 33.4739 117.833Z" fill="#FECE2F"/>
<path d="M269.964 175.278H311.332C311.911 175.278 311.911 174.363 311.332 174.363C297.542 174.363 283.753 174.363 269.964 174.363C269.384 174.363 269.384 175.278 269.964 175.278Z" fill="#FECE2F"/>
<path d="M295.652 174.332C295.652 171.312 295.652 168.292 295.652 165.241C295.652 164.661 294.737 164.661 294.737 165.241V174.332C294.737 174.912 295.652 174.912 295.652 174.332Z" fill="#FECE2F"/>
<path d="M290.131 165.699H322.408C322.987 165.699 322.987 164.783 322.408 164.783C311.639 164.783 300.9 164.783 290.131 164.783C289.551 164.783 289.551 165.699 290.131 165.699Z" fill="#FECE2F"/>
<path d="M29.1106 294.744H89.2097C89.7893 294.744 89.7893 293.829 89.2097 293.829C69.1665 293.829 49.1538 293.829 29.1106 293.829C28.5004 293.829 28.5004 294.744 29.1106 294.744Z" fill="#FECE2F"/>
<path d="M54.7698 289.832H120.33C120.909 289.832 120.909 288.917 120.33 288.917C98.4866 288.917 76.6434 288.917 54.7698 288.917C54.1902 288.917 54.1902 289.832 54.7698 289.832Z" fill="#FECE2F"/>
<path d="M97.9355 305.665H138.358C138.937 305.665 138.937 304.75 138.358 304.75C124.873 304.75 111.42 304.75 97.9355 304.75C97.3254 304.75 97.3254 305.665 97.9355 305.665Z" fill="#FECE2F"/>
<path d="M150.378 288.185H175.516C176.096 288.185 176.096 287.27 175.516 287.27C167.126 287.27 158.767 287.27 150.378 287.27C149.768 287.27 149.768 288.185 150.378 288.185Z" fill="#FECE2F"/>
<path d="M219.203 278.911H273.292C273.872 278.911 273.872 277.995 273.292 277.995C255.263 277.995 237.233 277.995 219.203 277.995C218.593 277.995 218.593 278.911 219.203 278.911Z" fill="#FECE2F"/>
<path d="M257.427 266.342H321.888C322.468 266.342 322.468 265.426 321.888 265.426C300.411 265.426 278.904 265.426 257.427 265.426C256.847 265.426 256.847 266.342 257.427 266.342Z" fill="#FECE2F"/>
<path d="M295.103 278.361H359.565C360.145 278.361 360.145 277.446 359.565 277.446C338.088 277.446 316.58 277.446 295.103 277.446C294.524 277.446 294.524 278.361 295.103 278.361Z" fill="#FECE2F"/>
<path d="M269.996 298.008H298.947C299.527 298.008 299.527 297.093 298.947 297.093C289.307 297.093 279.636 297.093 269.996 297.093C269.386 297.093 269.386 298.008 269.996 298.008Z" fill="#FECE2F"/>
<path opacity="0.07" d="M125.575 286.354C110.26 298.313 94.9764 310.272 79.6618 322.231C59.0694 313.262 38.5076 304.292 17.9153 295.323C39.7279 283.365 61.5405 271.406 83.3531 259.447C86.7394 259.02 89.7291 259.111 92.3222 259.447C112.304 262.132 123.409 282.236 125.575 286.354Z" fill="#1E1E1E"/>
<path d="M79.5408 123.111C79.2358 169.268 78.9307 215.395 78.6256 261.552L123.654 289.924C139.579 278.728 155.504 267.531 171.459 256.305C171.367 217.469 171.245 178.603 171.154 139.768C157.883 128.266 144.643 116.735 131.372 105.233C114.075 111.182 96.8079 117.131 79.5408 123.111Z" fill="#FFFCF4"/>
<path d="M123.348 162.221V262.071V290.076C123.348 290.656 124.263 290.656 124.263 290.076C124.263 256.793 124.263 223.51 124.263 190.226C124.263 180.891 124.263 171.556 124.263 162.221C124.263 161.641 123.348 161.611 123.348 162.221Z" fill="#1E1E1E"/>
<path d="M170.758 140.073C170.819 170.427 170.849 200.812 170.91 231.167C170.91 239.678 170.941 248.159 170.941 256.671C170.941 257.251 171.856 257.251 171.856 256.671C171.795 226.316 171.764 195.931 171.703 165.577C171.703 157.065 171.673 148.584 171.673 140.073C171.642 139.493 170.727 139.493 170.758 140.073Z" fill="#1E1E1E"/>
<path d="M79.2944 123.294C92.4735 118.87 105.683 114.447 118.862 110.023C122.126 108.925 125.36 107.857 128.624 106.759C129.326 106.515 130.18 106.027 130.943 106.271C131.523 106.454 132.316 107.43 132.804 107.857C134.177 109.047 135.58 110.206 136.953 111.396C142.2 115.85 147.417 120.304 152.664 124.758C158.674 129.883 164.684 134.978 170.694 140.103C170.724 139.859 170.755 139.615 170.785 139.371C155.349 147.12 139.79 154.533 124.048 161.672C124.231 161.702 124.414 161.733 124.598 161.733C119.533 157.34 114.469 152.916 109.405 148.523C101.29 141.476 93.1752 134.398 85.0603 127.351C83.1993 125.734 81.3689 124.117 79.508 122.5C79.2029 122.256 78.7148 122.409 78.7148 122.836V147.852V200.904V248.953V260.82C78.7148 261.43 78.5927 261.949 79.0198 262.376C79.3859 262.772 80.0266 263.016 80.4842 263.321C81.5214 263.993 82.5587 264.633 83.5654 265.304C96.5615 273.572 109.527 281.809 122.523 290.076C122.859 290.29 123.194 290.503 123.499 290.717C123.621 290.808 123.835 290.808 123.957 290.717C139.79 279.46 155.623 268.233 171.426 256.976C171.914 256.64 171.457 255.847 170.968 256.183C162.64 262.101 154.312 268.02 145.983 273.938C141.773 276.928 137.563 279.917 133.384 282.907C131.309 284.371 129.265 285.836 127.191 287.3C126.306 287.941 124.933 288.581 124.231 289.405C124.018 289.649 124.048 289.893 123.865 289.893C123.438 289.893 122.493 289.008 122.157 288.795C120.937 288.002 119.716 287.239 118.466 286.446C114.774 284.097 111.083 281.748 107.392 279.399C99.5512 274.396 91.7108 269.423 83.84 264.42C82.7417 263.718 81.674 263.047 80.5757 262.345C80.3011 262.162 79.9961 261.918 79.691 261.796C79.4774 261.705 79.2944 261.399 79.4774 261.796C79.691 262.254 79.569 261.583 79.5995 261.399C79.63 260.85 79.5995 260.301 79.5995 259.752C79.5995 254.627 79.5995 249.471 79.5995 244.346C79.5995 235.804 79.5995 227.262 79.5995 218.72C79.5995 208.653 79.5995 198.585 79.5995 188.518C79.5995 178.634 79.5995 168.749 79.5995 158.865C79.5995 151.025 79.5995 143.184 79.5995 135.344C79.5995 132.781 79.5995 130.188 79.5995 127.626C79.5995 126.283 79.7825 124.789 79.5995 123.446C79.569 123.263 79.5995 123.08 79.5995 122.897C79.3249 123.019 79.0809 123.111 78.8063 123.233C83.8705 127.626 88.9347 132.049 93.9989 136.442C102.114 143.489 110.229 150.567 118.344 157.614C120.204 159.231 122.035 160.848 123.896 162.465C124.079 162.617 124.262 162.617 124.445 162.526C140.156 155.387 155.745 147.974 171.182 140.225C171.426 140.103 171.487 139.676 171.273 139.493C160.413 130.249 149.552 121.006 138.692 111.762C137.38 110.633 136.068 109.535 134.756 108.406C134.146 107.888 133.536 107.369 132.895 106.82C132.407 106.423 131.553 105.386 130.943 105.172C130.516 105.02 130.15 105.264 129.723 105.416C128.869 105.691 128.014 105.996 127.13 106.271C125.421 106.85 123.682 107.43 121.974 108.01C115.293 110.237 108.581 112.494 101.9 114.721C94.2429 117.284 86.6161 119.846 78.9588 122.409C78.4707 122.592 78.7148 123.477 79.2944 123.294Z" fill="#1E1E1E"/>
<path d="M85.6093 265.121C85.6093 259.111 85.6093 253.132 85.6093 247.122C85.6093 246.542 84.6941 246.542 84.6941 247.122V265.121C84.6941 265.701 85.6093 265.701 85.6093 265.121Z" fill="#1E1E1E"/>
<path d="M84.9385 246.695C92.0771 250.691 99.1243 254.871 106.049 259.233C106.538 259.539 106.995 258.745 106.507 258.44C99.5819 254.078 92.5347 249.898 85.3961 245.902C84.8775 245.627 84.4198 246.42 84.9385 246.695Z" fill="#1E1E1E"/>
<path d="M105.897 259.02C105.5 265.274 105.103 271.558 104.707 277.812C104.676 278.392 105.592 278.392 105.622 277.812C106.019 271.558 106.415 265.274 106.812 259.02C106.842 258.44 105.927 258.44 105.897 259.02Z" fill="#1E1E1E"/>
<path d="M88.5409 253.346C88.0223 257.556 87.7173 261.766 87.6562 265.976C87.6562 266.555 88.5715 266.555 88.5715 265.976C88.6325 261.735 88.9375 257.525 89.4562 253.346C89.5477 252.735 88.6325 252.766 88.5409 253.346Z" fill="#1E1E1E"/>
<path d="M93.3901 255.512C92.841 259.874 92.4444 264.237 92.2308 268.599C92.2003 269.179 93.1156 269.179 93.1461 268.599C93.3901 264.237 93.7562 259.844 94.3053 255.512C94.3969 254.932 93.4816 254.932 93.3901 255.512Z" fill="#1E1E1E"/>
<path d="M98.392 258.745C97.7208 263.169 97.2327 267.623 96.9581 272.077C96.9276 272.657 97.8429 272.657 97.8734 272.077C98.1479 267.684 98.6055 263.321 99.2767 258.989C99.3682 258.41 98.4835 258.166 98.392 258.745Z" fill="#1E1E1E"/>
<path d="M102.116 260.881C101.842 264.816 101.567 268.721 101.323 272.657C101.292 273.236 102.208 273.236 102.238 272.657C102.513 268.721 102.787 264.816 103.031 260.881C103.062 260.301 102.147 260.301 102.116 260.881Z" fill="#1E1E1E"/>
<path d="M85.5505 243.614C93.3298 247.671 100.987 251.973 108.492 256.518C109.011 256.823 109.468 256.03 108.949 255.725C101.445 251.18 93.7874 246.848 86.0081 242.821C85.4895 242.546 85.0014 243.339 85.5505 243.614Z" fill="#1E1E1E"/>
<path d="M86.0997 242.912C86.0997 241.326 86.0997 239.77 86.0997 238.184C86.0997 237.604 85.1844 237.604 85.1844 238.184V242.912C85.1844 243.522 86.0997 243.522 86.0997 242.912Z" fill="#1E1E1E"/>
<path d="M85.5803 238.062C93.7257 241.966 101.597 246.42 109.132 251.363C109.62 251.698 110.078 250.905 109.589 250.569C102.054 245.597 94.1833 241.173 86.0379 237.268C85.5193 237.024 85.0617 237.787 85.5803 238.062Z" fill="#1E1E1E"/>
<path d="M108.643 251.637C108.49 253.01 108.338 254.413 108.185 255.786C108.124 256.366 109.039 256.366 109.1 255.786C109.253 254.413 109.405 253.01 109.558 251.637C109.619 251.058 108.704 251.058 108.643 251.637Z" fill="#1E1E1E"/>
<path d="M126.855 165.851C138.723 160.634 150.346 154.838 161.633 148.462C162.152 148.188 161.694 147.394 161.176 147.669C149.858 154.014 138.265 159.811 126.398 165.058C125.849 165.302 126.306 166.095 126.855 165.851Z" fill="#1E1E1E"/>
<path d="M126.126 165.394V172.99C126.126 173.569 127.041 173.569 127.041 172.99C127.041 170.458 127.041 167.926 127.041 165.394C127.041 164.814 126.126 164.814 126.126 165.394Z" fill="#1E1E1E"/>
<path d="M126.98 172.99C135.247 169.329 143.331 165.271 151.233 160.848C151.751 160.573 151.294 159.78 150.775 160.055C142.874 164.478 134.789 168.505 126.522 172.197C126.003 172.441 126.461 173.234 126.98 172.99Z" fill="#1E1E1E"/>
<path d="M126.613 206.853V273.267C126.613 273.846 127.528 273.846 127.528 273.267C127.528 251.119 127.528 228.97 127.528 206.853C127.528 206.273 126.613 206.273 126.613 206.853Z" fill="#1E1E1E"/>
<path d="M129.177 242.912V278.972C129.177 279.551 130.092 279.551 130.092 278.972C130.092 266.952 130.092 254.932 130.092 242.912C130.092 242.333 129.177 242.333 129.177 242.912Z" fill="#1E1E1E"/>
<path d="M80.5763 130.036V176.742C80.5763 177.322 81.4915 177.322 81.4915 176.742C81.4915 161.184 81.4915 145.594 81.4915 130.036C81.4915 129.456 80.5763 129.456 80.5763 130.036Z" fill="#1E1E1E"/>
<path d="M83.2012 163.807V217.835C83.2012 218.415 84.1164 218.415 84.1164 217.835C84.1164 199.836 84.1164 181.806 84.1164 163.807C84.1164 163.227 83.2012 163.227 83.2012 163.807Z" fill="#1E1E1E"/>
<path opacity="0.06" d="M78.8059 123.08V261.918C93.8154 271.375 108.794 280.833 123.804 290.29C123.804 247.427 123.804 204.565 123.804 161.672C108.794 148.828 93.8154 135.954 78.8059 123.08Z" fill="#1E1E1E"/>
<path opacity="0.1" d="M80.0896 139.462C84.6352 161.489 89.0892 179.793 92.628 193.399C98.1193 214.571 100.926 222.808 104.648 231.228C111.024 245.658 118.224 256.671 123.562 263.962C123.745 242.729 123.898 221.527 124.081 200.294C125.576 229.977 138.999 248.617 149.646 248.373C158.249 248.159 166.669 235.682 171.367 220.489V256.793C155.595 267.775 139.823 278.789 124.081 289.771C109.163 280.405 94.2449 271.009 79.3269 261.644C79.571 220.916 79.815 180.189 80.0896 139.462Z" fill="#1E1E1E"/>
<path opacity="0.39" d="M177.68 125.033C163.586 132.995 149.522 140.957 135.428 148.92C127.069 137.602 118.679 126.253 110.32 114.935C126.428 108.62 142.566 102.274 158.674 95.9593C165.02 105.661 171.365 115.331 177.68 125.033Z" fill="#FECE2F"/>
<path opacity="0.39" d="M115.599 117.497C117.155 118.535 118.71 119.572 120.297 120.609C120.541 120.762 120.907 120.609 120.968 120.334C121.639 117.223 122.707 114.294 124.232 111.518C124.507 110.999 123.714 110.542 123.439 111.06C121.883 113.928 120.785 116.948 120.083 120.121C120.297 120.029 120.541 119.938 120.754 119.846C119.199 118.809 117.643 117.772 116.056 116.735C115.568 116.369 115.111 117.162 115.599 117.497Z" fill="#1E1E1E"/>
<path d="M128.138 111.06C128.657 110.267 129.358 109.657 130.243 109.291C130.518 109.169 130.274 108.772 129.999 108.894C129.053 109.321 128.291 109.993 127.742 110.847C127.589 111.091 127.986 111.304 128.138 111.06Z" fill="#1E1E1E"/>
<path d="M128.169 112.982C128.779 111.091 130.487 109.718 132.47 109.504C132.775 109.474 132.775 109.016 132.47 109.047C130.274 109.26 128.413 110.725 127.742 112.86C127.65 113.135 128.077 113.257 128.169 112.982Z" fill="#1E1E1E"/>
<path d="M128.686 114.538C129.357 111.854 131.249 109.901 134.147 110.847C134.422 110.938 134.544 110.511 134.269 110.42C131.157 109.382 128.991 111.487 128.259 114.416C128.168 114.691 128.595 114.813 128.686 114.538Z" fill="#1E1E1E"/>
<path d="M129.602 116.033C129.693 114.538 129.937 112.769 131.371 111.914C132.774 111.091 134.361 111.67 135.398 112.769C135.612 112.982 135.917 112.647 135.734 112.433C134.635 111.274 133.018 110.664 131.493 111.335C129.663 112.128 129.297 114.203 129.175 116.002C129.144 116.308 129.602 116.308 129.602 116.033Z" fill="#1E1E1E"/>
<path d="M130.974 117.772C131.279 116.033 129.845 114.447 131.401 112.952C132.53 111.884 133.963 112.433 134.879 113.409C135.702 114.325 136.038 115.514 136.19 116.704C136.221 116.979 136.679 117.009 136.648 116.704C136.404 114.691 135.123 111.518 132.499 111.854C131.553 111.976 130.73 112.799 130.364 113.653C129.784 115.026 130.791 116.247 130.547 117.619C130.486 117.924 130.943 118.046 130.974 117.772Z" fill="#1E1E1E"/>
<path d="M131.98 118.474C132.926 116.918 130.943 115.423 131.736 113.989C132.56 112.433 134.176 113.47 134.726 114.569C135.305 115.789 135.305 117.162 134.97 118.443C134.909 118.718 135.336 118.84 135.397 118.565C135.854 116.796 135.671 112.86 133.109 112.738C132.285 112.708 131.461 113.287 131.217 114.05C130.729 115.514 132.468 116.857 131.614 118.229C131.431 118.504 131.827 118.748 131.98 118.474Z" fill="#1E1E1E"/>
<path d="M133.05 118.809C133.538 117.65 133.416 116.552 132.836 115.484C132.714 115.301 132.623 115.087 132.531 114.874C133.202 114.416 133.599 114.538 133.721 115.179C133.843 115.484 133.935 115.789 133.965 116.124C134.118 117.07 133.965 117.985 133.63 118.87C133.508 119.145 133.965 119.267 134.057 118.992C134.484 117.924 134.606 116.796 134.331 115.697C134.179 114.996 133.782 113.836 132.897 113.806C132.318 113.775 131.982 114.233 132.013 114.782C132.043 115.27 132.409 115.697 132.592 116.124C132.958 116.979 132.928 117.863 132.562 118.718C132.501 118.962 132.928 119.084 133.05 118.809Z" fill="#1E1E1E"/>
<path d="M153.701 135.283C153.792 134.734 153.823 134.124 153.304 133.788C152.786 133.452 151.901 133.788 151.291 133.758C150.315 133.697 149.338 133.33 148.423 133.025C146.562 132.415 144.671 131.561 143.328 130.036C142.718 129.334 141.925 128.205 141.864 127.229C141.742 124.941 143.054 126.71 143.969 126.954C144.457 127.077 144.854 127.046 144.884 126.497C144.915 126.131 144.61 125.948 144.366 125.673C143.725 125.002 143.115 124.361 142.535 123.629C141.376 122.104 140.461 120.395 139.912 118.565C139.698 117.863 138.996 115.118 140.369 115.301C141.01 115.362 142.108 116.857 142.505 117.345C142.627 117.223 142.718 117.131 142.84 117.009C141.956 115.88 140.491 114.202 140.583 112.677C140.735 109.748 144.122 112.555 144.732 113.623C144.854 113.531 144.976 113.44 145.098 113.348C144.701 112.891 144.091 112.006 144.091 111.335C144.03 109.474 145.067 110.176 145.799 110.664C146.776 111.335 147.477 112.372 148.179 113.318C148.362 113.562 148.698 113.348 148.576 113.074C148.362 112.677 148.21 112.25 148.087 111.792C147.813 111.213 148.057 110.908 148.881 110.847C150.009 110.267 149.918 110.42 150.65 111.213C151.474 112.098 152.114 113.135 152.786 114.141C153.884 115.85 155.135 117.375 156.355 118.962C157.148 119.999 157.789 121.097 158.124 122.378C158.46 123.629 158.429 124.91 158.612 126.161C158.826 127.626 159.436 128.937 160.839 129.609C161.114 129.731 161.328 129.334 161.084 129.212C158.216 127.839 159.223 123.355 158.063 120.792C157.545 119.633 156.752 118.626 155.928 117.65C154.86 116.369 153.975 115.057 153.06 113.653C152.175 112.281 150.62 109.352 148.728 109.291C146.623 109.23 147.721 112.189 148.179 113.196C148.301 113.104 148.454 113.043 148.576 112.952C147.813 111.884 145.83 108.894 144.091 109.474C142.566 109.993 144.213 112.86 144.793 113.531C144.976 113.745 145.281 113.47 145.159 113.257C144.61 112.311 143.847 111.548 142.871 111.091C142.261 110.816 140.979 110.328 140.4 110.938C139.82 111.548 140.125 112.891 140.369 113.592C140.796 114.935 141.681 116.094 142.566 117.192C142.749 117.436 143.054 117.101 142.901 116.857C142.413 116.246 140.796 114.111 139.79 114.447C138.935 114.752 139.149 116.582 139.21 117.162C139.454 119.023 140.369 120.884 141.345 122.439C141.803 123.172 142.322 123.873 142.871 124.514C143.145 124.849 143.725 125.216 143.908 125.612C144.488 126.009 144.366 126.131 143.511 125.978C143.267 125.826 142.993 125.704 142.749 125.551C141.986 125.155 141.498 125.155 141.345 126.131C141.162 127.443 142.078 129.029 142.871 129.975C143.969 131.317 145.494 132.171 147.081 132.812C148.026 133.178 149.033 133.514 150.009 133.758C150.742 133.941 153.426 133.819 153.274 134.947C153.213 135.466 153.67 135.588 153.701 135.283Z" fill="#1E1E1E"/>
<path d="M142.142 116.826C143.423 118.382 144.46 120.151 145.589 121.829C145.742 122.073 146.138 121.829 145.986 121.585C144.826 119.877 143.759 118.077 142.447 116.491C142.264 116.277 141.959 116.582 142.142 116.826Z" fill="#1E1E1E"/>
<path d="M144.032 112.647C145.283 114.355 146.443 116.094 147.541 117.894C147.693 118.138 148.09 117.924 147.937 117.65C146.839 115.85 145.68 114.111 144.429 112.403C144.277 112.189 143.88 112.403 144.032 112.647Z" fill="#1E1E1E"/>
<path d="M110.201 114.996C118.408 126.375 126.797 137.632 135.4 148.706C135.583 148.95 135.888 148.615 135.736 148.371C127.163 137.297 118.804 126.1 110.598 114.752C110.445 114.538 110.049 114.752 110.201 114.996Z" fill="#1E1E1E"/>
<path d="M226.858 273.114C227.346 278.88 227.834 284.615 228.322 290.381C216.821 295.476 211.269 298.74 211.696 300.144C212.215 301.852 221.397 300.876 239.213 297.215C238.847 287.453 238.451 277.66 238.085 267.897C234.363 269.636 230.61 271.375 226.858 273.114Z" fill="#1E1E1E"/>
<path d="M238.053 149.438C239.791 150.598 240.097 153.191 240.707 158.346C241.012 160.817 241.164 163.868 240.402 172.715C240.31 173.661 240.066 176.681 239.303 183.179C238.205 192.697 237.9 193.826 237.595 197.853C237.351 200.995 237.198 204.321 237.29 211.459C237.381 218.262 237.473 227.567 238.541 240.533C239.334 250.142 240.676 262.101 243.086 275.829C240.707 277.08 238.48 277.843 236.68 278.331C232.683 279.399 229.45 279.429 226.673 279.429C224.019 279.429 221.701 279.216 219.809 278.972C218.925 274.365 217.765 267.44 216.85 258.959C216.362 254.566 216.057 249.715 215.447 240.197C214.593 226.865 214.165 220.215 214.043 214.571C213.982 212.069 213.982 209.995 214.349 192.85C214.898 167.132 215.111 163.99 217.796 159.872C223.135 151.635 233.965 146.693 238.053 149.438Z" fill="#FFFCF4"/>
<path d="M240.342 150.292C240.86 158.59 240.708 166.888 239.884 175.156C239.06 183.21 237.687 191.172 237.169 199.226C236.101 215.761 237.199 232.387 239.03 248.831C240.067 258.013 241.318 267.196 242.599 276.348C242.691 276.928 243.575 276.684 243.484 276.104C241.196 259.6 238.908 243.065 238.023 226.408C237.596 218.262 237.504 210.056 237.901 201.911C238.328 193.796 239.518 185.833 240.494 177.779C241.592 168.658 241.836 159.445 241.257 150.262C241.226 149.682 240.311 149.682 240.342 150.292Z" fill="#1E1E1E"/>
<path d="M213.893 190.043C213.161 213.229 214.046 236.445 216.639 259.508C217.341 265.914 218.195 272.29 219.171 278.666C219.262 279.246 220.147 279.002 220.056 278.422C216.608 255.634 214.778 232.601 214.595 209.537C214.534 203.039 214.625 196.541 214.839 190.043C214.839 189.433 213.924 189.433 213.893 190.043Z" fill="#1E1E1E"/>
<path d="M219.445 279.338C227.377 280.924 235.583 279.887 242.874 276.348C243.393 276.104 242.935 275.311 242.417 275.555C235.37 278.972 227.377 280.009 219.689 278.453C219.109 278.331 218.865 279.216 219.445 279.338Z" fill="#1E1E1E"/>
<path opacity="0.09" d="M217.035 167.468C216.211 173.234 215.449 179.793 214.93 187.054C214.625 191.02 214.198 197.823 214.137 206.365C214.076 213.473 214.351 219.483 214.93 231.258C215.571 244.56 215.906 251.363 216.791 258.776C217.798 267.318 219.049 274.273 219.964 278.88C222.099 279.338 225.028 279.673 228.445 279.399C230.702 279.216 232.655 278.789 234.272 278.331C231.679 268.63 229.299 258.471 227.133 247.885C221.184 218.964 218.194 191.904 217.035 167.468Z" fill="#1E1E1E"/>
<path opacity="0.09" d="M214.657 197.395C215.969 208.317 217.128 217.713 218.104 225.187C220.606 244.743 221.399 249.654 223.138 255.878C226.006 266.189 229.758 274.151 232.412 279.155C230.551 279.612 227.531 280.1 223.931 279.429C222.253 279.124 220.82 278.605 219.691 278.117C218.44 270.704 217.372 262.925 216.518 254.84C214.291 234.004 213.955 214.724 214.657 197.395Z" fill="#1E1E1E"/>
<path d="M192.172 276.378C191.745 282.449 191.318 288.551 190.861 294.622C176.522 298.161 169.475 300.723 169.689 302.279C169.933 304.14 180.519 304.567 201.447 303.591C202.087 294.805 202.758 285.988 203.399 277.202C199.647 276.897 195.894 276.623 192.172 276.378Z" fill="#1E1E1E"/>
<path d="M204.831 150.598C203.031 152.52 201.841 154.96 201.841 154.96C201.109 156.455 200.651 157.736 200.468 158.773C200.133 161.062 199.645 164.234 199.095 168.017C197.906 176.285 197.082 182.752 196.655 186.23C195.129 198.28 194.275 206.09 192.567 220.52C190.035 241.844 189.303 246.451 187.411 263.779C186.71 270.216 186.13 275.524 185.764 279.002C186.282 279.826 187.167 280.985 188.57 282.022C188.906 282.266 189.547 282.724 191.469 283.639C193.238 284.463 195.038 285.195 195.831 285.47C200.56 286.995 209.102 284.707 209.559 284.585C209.559 281.26 209.62 276.775 209.864 271.436C209.956 269.301 210.261 263.535 211.451 252.461C212.519 242.546 213.342 234.706 215.203 224.15C216.546 216.432 217.857 210.544 219.047 205.419C220.847 197.365 222.616 190.501 224.081 185.162C226.186 181.044 228.291 176.925 230.396 172.807C231.006 171.922 236.589 163.655 233.416 156.15C228.657 144.74 208.766 146.388 204.831 150.598Z" fill="#FFFCF4"/>
<path d="M203.794 147.242C198.089 162.922 196.869 179.854 194.947 196.297C192.873 213.93 190.798 231.563 188.754 249.227C187.595 259.111 186.436 268.996 185.276 278.85C185.215 279.429 186.131 279.429 186.192 278.85C188.236 261.308 190.31 243.766 192.354 226.225C194.367 208.988 196.137 191.721 198.486 174.546C199.737 165.363 201.476 156.211 204.679 147.486C204.862 146.937 203.977 146.693 203.794 147.242Z" fill="#1E1E1E"/>
<path d="M230.186 172.502C225.366 180.098 221.553 188.274 218.868 196.877C218.685 197.426 219.57 197.67 219.753 197.121C222.407 188.609 226.19 180.495 230.979 172.959C231.284 172.471 230.491 171.983 230.186 172.502Z" fill="#1E1E1E"/>
<path d="M224.143 183.576C216.76 209.08 212.031 235.346 210.14 261.827C209.591 269.423 209.286 277.019 209.194 284.615C209.194 285.195 210.109 285.195 210.109 284.615C210.414 258.044 213.526 231.533 219.383 205.632C221.031 198.311 222.922 191.05 225.027 183.85C225.18 183.271 224.326 183.027 224.143 183.576Z" fill="#1E1E1E"/>
<path d="M185.369 279.338C191.379 286.446 201.294 288.612 209.775 284.798C210.324 284.554 209.836 283.761 209.317 284.005C201.202 287.636 191.745 285.439 186.01 278.667C185.613 278.239 184.973 278.88 185.369 279.338Z" fill="#1E1E1E"/>
<path opacity="0.06" d="M210.934 153.191C214.565 156.516 208.829 167.468 205.382 175.949C200.348 188.335 199.28 208.805 197.175 249.807C196.718 258.471 196.23 270.613 196.108 285.287C195.04 285.134 193.759 284.829 192.416 284.219C188.847 282.663 186.772 280.07 185.796 278.666C186.65 272.596 187.871 263.413 189.244 252.186C192.386 226.438 193.026 215.883 195.345 197.395C196.657 186.932 198.701 171.922 201.965 153.709C201.935 153.709 201.935 153.709 210.934 153.191Z" fill="#1E1E1E"/>
<path opacity="0.06" d="M196.108 193.43C197.725 216.279 196.016 230.892 194.003 240.289C192.264 248.342 192.66 256.732 191.623 264.908C191.105 268.904 190.403 273.938 193.21 278.666C195.223 282.053 198.213 283.975 200.348 285.012C199.097 285.256 195.833 285.714 192.142 284.219C188.542 282.754 186.528 280.253 185.796 279.185C187.261 266.494 188.786 253.773 190.281 241.082C192.203 225.157 194.155 209.293 196.108 193.43Z" fill="#1E1E1E"/>
<path d="M231.068 80.5227C230.427 80.8888 230.701 84.4581 231.281 91.5053C231.342 92.0849 231.373 92.7561 231.464 93.6713C231.678 95.7458 231.952 97.7593 232.288 99.9253C234.82 116.369 238.42 128.571 238.42 128.571C240.159 134.459 242.63 141.72 246.138 149.804C246.718 150.842 247.877 152.52 249.829 153.496C251.934 154.564 253.826 154.258 256.633 153.74C262.063 152.733 265.541 150.262 266.791 149.286C268.622 147.882 271.032 146.022 270.818 143.856C270.727 143.093 270.3 141.964 269.354 141.629C268.53 141.323 267.493 141.72 266.791 142.605C268.225 140.622 269.232 138.791 269.903 137.419C271.459 134.246 271.459 133.148 271.123 132.354C271.062 132.232 270.696 131.378 269.903 130.982C269.69 130.89 269.263 130.707 267.89 130.982C266.273 131.287 266.029 131.683 264.992 131.714C264.015 131.744 263.71 131.409 262.978 131.348C262.032 131.256 260.629 131.622 258.738 133.819C258.432 133.575 257.975 133.3 257.395 133.331C256.419 133.361 255.656 134.276 253.704 137.663C253.094 138.7 252.331 140.073 251.477 141.751C251.05 139.859 250.409 136.93 249.677 133.361C247.175 120.792 247.541 118.352 245.65 109.169C242.996 96.1119 240.189 90.6511 237.718 86.9597C235.339 83.2379 232.196 79.8516 231.068 80.5227Z" fill="#FFFCF4"/>
<path d="M231.159 81.1938C232.532 80.5531 234.179 82.9937 234.911 83.8784C235.826 85.0072 236.681 86.1664 237.443 87.3867C238.877 89.6137 240.067 91.9933 241.074 94.4644C243.331 99.9252 244.643 105.722 245.68 111.518C246.748 117.558 247.602 123.629 248.548 129.67C249.372 134.917 249.921 140.5 252.849 145.076C253.154 145.564 253.948 145.106 253.643 144.618C251.05 140.591 250.409 135.802 249.707 131.195C248.914 126.009 248.121 120.823 247.297 115.636C245.802 106.21 243.911 96.5389 239.03 88.2104C237.87 86.258 236.559 84.397 235.094 82.6581C233.996 81.4073 232.562 79.5464 230.732 80.4006C230.152 80.6446 230.61 81.4378 231.159 81.1938Z" fill="#1E1E1E"/>
<path d="M230.976 94.0373C232.044 103.434 233.752 112.738 236.132 121.89C238.45 130.798 241.165 139.981 245.07 148.34C246.718 151.818 249.829 155.662 254.161 154.533C254.741 154.38 254.497 153.496 253.917 153.648C247.846 155.265 245.223 146.571 243.636 142.452C241.684 137.327 239.945 132.141 238.42 126.894C235.308 116.155 233.142 105.172 231.861 94.0679C231.83 93.4577 230.915 93.4272 230.976 94.0373Z" fill="#1E1E1E"/>
<path d="M251.997 142.33C252.79 140.713 253.553 139.066 254.346 137.449C255.17 135.771 256.176 133.422 258.403 133.636C258.983 133.697 258.983 132.781 258.403 132.72C256.664 132.568 255.414 133.697 254.559 135.069C253.248 137.174 252.302 139.615 251.204 141.842C250.96 142.391 251.722 142.849 251.997 142.33Z" fill="#1E1E1E"/>
<path d="M256.572 138.456C257.884 136.259 260.386 130.158 263.802 132.019C264.321 132.293 264.779 131.5 264.26 131.225C260.08 128.937 257.365 135.313 255.779 137.968C255.474 138.517 256.267 138.974 256.572 138.456Z" fill="#1E1E1E"/>
<path d="M259.227 139.584C260.325 138.029 261.454 136.473 262.552 134.917C263.742 133.239 265.328 131.195 267.647 131.531C268.226 131.622 268.47 130.737 267.891 130.646C265.969 130.341 264.413 131.256 263.162 132.659C261.393 134.612 259.959 136.991 258.433 139.127C258.067 139.584 258.86 140.042 259.227 139.584Z" fill="#1E1E1E"/>
<path d="M261.82 140.256C263.132 138.7 264.413 137.113 265.725 135.558C266.488 134.642 269.539 129.914 270.82 132.72C271.155 133.422 270.606 134.856 270.362 135.558C270.027 136.473 269.539 137.327 269.081 138.181C268.044 140.073 266.976 141.934 265.634 143.611C265.268 144.069 265.908 144.71 266.274 144.252C267.952 142.117 269.356 139.737 270.576 137.296C271.339 135.771 272.528 132.995 271.339 131.378C270.149 129.761 268.105 131.348 267.19 132.385C265.115 134.734 263.163 137.205 261.18 139.615C260.814 140.042 261.454 140.683 261.82 140.256Z" fill="#1E1E1E"/>
<path d="M267.434 131.5C267.892 131.561 268.319 131.683 268.746 131.836C268.99 131.927 269.234 131.744 269.295 131.531C269.356 131.256 269.204 131.073 268.99 130.982C268.502 130.798 267.983 130.676 267.434 130.615C267.19 130.585 266.977 130.859 266.977 131.073C266.977 131.317 267.19 131.47 267.434 131.5Z" fill="#1E1E1E"/>
<path d="M267.83 142.422C268.531 141.537 269.904 142.147 270.179 143.123C270.301 143.55 270.301 144.069 270.209 144.496C269.996 145.503 269.355 146.388 268.653 147.12C267.403 148.462 265.908 149.621 264.321 150.537C261.149 152.367 257.549 153.282 253.918 153.557C253.339 153.587 253.339 154.502 253.918 154.472C259.41 154.075 264.809 152.184 268.806 148.279C270.27 146.845 271.735 144.832 271.002 142.666C270.453 141.018 268.379 140.256 267.189 141.75C266.792 142.239 267.464 142.879 267.83 142.422Z" fill="#1E1E1E"/>
<path opacity="0.08" d="M231.433 81.0413C232.104 83.4513 233.081 87.1732 234.209 91.7492C237.108 103.617 238.999 113.592 242.538 128.297C246.107 143.123 247.449 146.479 250.744 147.76C254.405 149.164 261.635 148.462 266.15 144.71C267.584 143.52 269.018 141.811 269.75 142.208C270.513 142.635 270.299 145.137 269.323 147.059C267.493 150.72 263.191 151.97 259.042 153.16C255.656 154.136 253.948 154.624 251.812 153.984C248.67 153.038 246.87 150.414 245.985 149.133C244.887 147.516 244.704 146.571 243.209 142.452C241.684 138.212 241.562 138.334 240.433 135.222C238.175 129.029 236.833 123.599 235.979 120.212C234.24 113.257 232.654 106.82 231.799 98.1252C231.433 93.7932 231.128 87.9664 231.433 81.0413Z" fill="#1E1E1E"/>
<path opacity="0.06" d="M245.468 145.899C246.322 146.784 250.349 150.781 256.847 151.025C264.23 151.299 268.928 146.479 269.63 145.747C268.837 147.089 267.281 149.225 264.627 150.872C262.949 151.94 261.515 152.367 259.898 152.825C255.719 154.045 253.003 154.808 250.441 153.648C246.536 151.909 245.621 146.754 245.468 145.899Z" fill="#1E1E1E"/>
<path d="M228.814 77.9906C225.549 77.594 222.468 79.821 220.79 81.0413C216.123 84.4276 214.323 89.2172 213.499 91.2917C208.465 103.891 207.001 119.145 206.36 124.88C205.537 132.08 203.92 142.574 200.259 155.326C202.395 157.065 210.845 163.563 223.231 163.166C233.817 162.8 241.047 157.584 243.396 155.692C244.067 143.459 244.159 133.147 244.098 125.429C243.945 111.335 243.457 104.867 241.322 97.4236C239.674 91.6883 235.983 78.8448 228.814 77.9906Z" fill="#FECE2F"/>
<path opacity="0.08" d="M226.218 78.9363C223.167 81.926 230.458 93.5798 231.648 96.2949C237.139 108.803 239.671 129.029 226.553 162.892C228.353 162.556 230.367 162.068 232.502 161.306C236.956 159.78 240.465 157.706 243.027 155.875C243.241 153.648 243.515 150.659 243.729 147.12C244.064 141.476 244.095 136.839 244.064 132.934C244.003 121.036 243.973 115.087 243.027 107.186C242.539 103.251 241.471 95.8983 237.933 87.5698C235.828 82.6582 233.662 79.2414 230.214 78.4482C229.787 78.3262 227.408 77.777 226.218 78.9363Z" fill="#1E1E1E"/>
<path opacity="0.05" d="M243.393 113.989C242.783 113.928 241.989 119.511 240.586 126.771C237.627 142.056 233.936 153.984 231.312 161.641C233.051 160.97 234.881 160.207 236.742 159.353C239.03 158.316 241.196 157.248 243.24 156.211C244.552 121.25 244.094 114.05 243.393 113.989Z" fill="white"/>
<path d="M221.826 82.4446C220.85 82.048 219.935 82.1091 219.386 82.2006C218.47 83.2988 217.037 85.0377 215.298 87.1732C207.64 96.722 206.969 98.949 201.63 105.05C196.505 110.908 192.966 113.653 190.343 115.423C187.384 117.406 185.187 118.413 184.516 118.718C179.665 120.884 175.272 121.555 172.374 121.799C171.489 121.372 170.208 120.67 168.927 119.511C167.279 117.985 166.517 116.521 165.724 115.179C162.703 110.084 161.88 108.62 160.751 108.65C160.354 108.65 159.714 108.864 158.92 110.054C158.615 109.84 158.097 109.443 157.517 108.925C156.083 107.644 155.687 106.881 154.497 106.362C153.978 106.149 153.307 105.844 152.727 106.179C152.148 106.515 152.026 107.308 151.995 107.491C151.477 106.942 150.226 105.813 148.456 105.722C147.968 105.691 147.267 105.661 146.931 106.088C146.412 106.698 146.901 108.162 148.182 109.688C147.877 109.596 146.412 109.108 145.802 109.779C145.131 110.481 145.833 112.037 146.29 113.043C147.206 115.087 148.395 116.125 150.867 118.87C151.873 119.999 152.666 120.914 153.185 121.494C152.666 121.433 151.843 121.311 150.928 120.945C149.555 120.396 149.097 119.755 148.487 119.938C147.816 120.151 147.45 121.28 147.572 122.165C147.724 123.172 148.67 123.782 149.25 124.117C152.758 126.253 157.09 127.321 158.432 127.656C161.758 128.48 163.435 128.876 164.686 129.029C166.852 129.304 169.018 129.426 172.252 129.273C181.221 128.846 188.207 127.016 189.702 126.619C192.936 125.765 195.773 125.002 199.342 123.385C202.668 121.89 209.989 118.504 216.396 110.847C219.904 106.667 221.399 103.22 224.419 96.3559C224.785 95.5017 225.518 93.8238 225.64 91.5663C225.792 88.3935 224.907 83.6649 221.826 82.4446Z" fill="#FFFCF4"/>
<path d="M221.58 81.804C219.475 81.0108 217.889 82.9938 216.699 84.4581C214.99 86.5326 213.373 88.6681 211.757 90.8341C208.248 95.5627 204.862 100.413 200.988 104.898C193.666 113.44 184.026 120.975 172.28 121.25C171.701 121.25 171.701 122.165 172.28 122.165C182.897 121.921 192.049 115.85 199.096 108.345C202.757 104.44 205.991 100.169 209.163 95.8678C210.841 93.5798 212.519 91.2917 214.228 89.0342C215.234 87.7224 216.272 86.4106 217.309 85.1293C218.255 83.97 219.566 82.0786 221.305 82.7192C221.885 82.8718 222.099 81.9871 221.58 81.804Z" fill="#1E1E1E"/>
<path d="M225.12 90.8645C221.094 118.565 189.183 131.195 164.198 128.388C160.11 127.931 155.961 126.985 152.208 125.246C151.263 124.819 150.317 124.331 149.463 123.751C149.097 123.507 148.731 123.294 148.456 122.958C147.754 122.439 147.693 121.89 148.212 121.28C148.273 120.456 148.67 120.212 149.432 120.517C150.927 120.853 151.873 122.134 153.49 122.165C154.069 122.165 154.069 121.25 153.49 121.25C151.842 121.219 150.775 119.663 149.158 119.541C147.998 119.45 147.022 120.09 146.87 121.28C146.565 124.087 150.805 125.643 152.819 126.497C160.293 129.609 168.652 130.036 176.614 129.365C191.319 128.114 206.298 122.805 216.243 111.518C221.307 105.752 224.876 98.7354 225.975 91.1086C226.097 90.529 225.212 90.2849 225.12 90.8645Z" fill="#1E1E1E"/>
<path d="M153.734 121.402C153.002 120.06 151.842 119.206 150.775 118.169C149.249 116.674 147.998 114.569 146.961 112.677C146.687 112.159 146.412 111.64 146.26 111.091C145.863 110.328 146.107 110.054 146.931 110.298C147.449 110.084 147.846 110.206 148.151 110.603C148.914 111.06 149.646 111.945 150.256 112.586C151.751 114.111 153.063 115.819 154.222 117.619C154.527 118.108 155.32 117.65 155.015 117.162C154.1 115.758 147.053 105.996 145.405 109.443C144.429 111.426 146.87 114.264 147.815 115.789C148.517 116.887 149.188 117.924 150.134 118.84C151.141 119.816 152.27 120.609 152.971 121.89C153.215 122.378 154.008 121.921 153.734 121.402Z" fill="#1E1E1E"/>
<path d="M149.373 110.176C148.976 109.779 146.017 106.149 147.908 105.935C148.335 105.874 149.434 106.789 149.8 107.033C150.41 107.46 151.02 107.949 151.569 108.498C153.583 110.359 155.169 112.616 156.725 114.843C157.06 115.331 157.854 114.874 157.518 114.386C155.169 111.06 152.484 106.972 148.61 105.264C147.664 104.837 146.383 104.776 146.261 106.088C146.108 107.766 147.603 109.779 148.701 110.847C149.159 111.243 149.8 110.603 149.373 110.176Z" fill="#1E1E1E"/>
<path d="M153.061 108.65C152.969 108.467 152.542 107.583 152.603 107.369C152.939 107.094 153.274 106.789 153.61 106.515C153.823 106.637 154.068 106.728 154.281 106.85C155.166 107.369 155.928 108.132 156.63 108.894C158.033 110.481 159.254 112.25 160.535 113.928C160.901 114.386 161.694 113.928 161.328 113.47C159.376 110.938 157.362 107.247 154.312 105.844C153.64 105.539 152.695 105.294 152.085 105.844C151.169 106.637 151.84 108.071 152.207 108.925C152.39 109.443 153.274 109.199 153.061 108.65Z" fill="#1E1E1E"/>
<path d="M159.622 110.603C159.378 109.84 159.164 109.657 160.14 109.565C160.995 109.504 161.025 109.688 161.544 110.237C162.184 110.969 162.764 111.731 163.344 112.494C164.32 113.836 165.235 115.24 166.242 116.613C167.798 118.718 169.842 121.677 172.648 122.073C173.228 122.165 173.472 121.28 172.892 121.189C170.36 120.823 168.438 118.077 167.035 116.155C165.754 114.416 164.564 112.555 163.252 110.847C162.49 109.901 161.33 107.949 159.896 108.01C158.371 108.071 158.463 109.81 158.798 110.847C158.92 111.396 159.805 111.152 159.622 110.603Z" fill="#1E1E1E"/>
<path opacity="0.08" d="M224.998 85.8004C224.266 85.5869 223.077 88.6986 220.788 92.7255C217.036 99.3761 213.253 103.739 209.257 107.705C199.769 117.101 195.01 121.829 186.712 124.3C183.753 125.185 170.086 128.846 157.456 120.945C151.476 117.192 148.029 112.281 146.29 109.291C145.985 109.596 145.619 110.054 145.558 110.664C145.436 111.548 146.015 112.22 146.687 113.135C147.602 114.447 147.663 114.782 147.998 115.453C147.998 115.453 148.273 115.941 148.67 116.491C149.707 117.924 153.368 121.25 153.124 121.585C153.032 121.707 152.33 121.372 150.897 120.731C149.493 120.09 149.249 119.907 148.792 119.999C147.968 120.151 147.144 121.067 147.175 121.982C147.205 122.806 147.907 123.355 148.548 123.843C149.28 124.422 149.981 124.636 150.164 124.697C152.849 125.612 153.52 126.222 155.869 126.924C162.733 128.968 170.482 129.151 170.482 129.151C181.861 129.426 190.586 126.558 192.417 125.917C196.2 124.636 203.613 122.043 211.118 115.636C214.84 112.464 220.514 107.521 223.504 99.2846C225.792 93.0306 226.036 86.075 224.998 85.8004Z" fill="#1E1E1E"/>
<path opacity="0.06" d="M153.611 125.582C158.492 126.649 164.441 127.443 171.214 127.321C187.779 127.016 200.562 121.28 207.761 117.284C203.918 120.457 197.419 125.002 188.298 127.565C172.16 132.11 158.523 127.504 153.611 125.582Z" fill="#1E1E1E"/>
<path d="M203.521 40.4058C203.491 40.4668 202.423 42.2667 200.318 45.8971C197.878 50.0765 196.871 51.8155 195.864 54.2865C195.162 56.0254 194.705 57.4593 194.43 58.4355C195.773 58.9846 197.115 59.5338 198.457 60.0829C198.823 63.0726 199.708 65.3606 200.41 66.7945C201.538 69.113 203.155 72.4993 206.816 74.1467C207.365 74.3907 209.013 75.0924 211.27 75.0924C214.077 75.0924 216.151 73.9941 217.067 73.445C217.25 74.6043 217.616 76.0686 218.317 77.6855C218.897 79.0583 219.568 80.1566 220.178 81.0108C223.046 79.9125 225.914 78.8143 228.751 77.6855C227.958 76.4957 226.92 74.6043 226.28 72.1027C226.066 71.2485 225.578 69.113 225.761 66.0928C225.975 62.4014 227.012 60.4795 228.141 57.0017C229.88 51.5714 230.917 48.3987 230.429 45.0124C229.788 40.6193 226.493 35.5552 221.429 33.7247C214.168 31.0706 206.633 36.2263 203.521 40.4058Z" fill="#FFFCF4"/>
<path d="M198.455 43.9447C196.563 43.2125 196.136 39.4906 196.502 37.0195C196.624 36.1958 197.082 33.7553 199.309 31.3147C202.329 27.9894 205.532 28.0199 210.17 26.037C212.732 24.9387 216.393 22.9557 220.298 19.1118C219.718 20.8508 219.139 22.5592 218.528 24.2981C219.413 24.3591 221.61 24.4506 223.898 23.1693C226.735 21.6134 227.833 19.0508 228.138 18.3187C228.626 19.0813 230.64 22.4066 229.572 26.1895C229.267 27.2573 228.779 28.1115 228.321 28.7826C229.908 28.3555 232.135 27.5318 234.026 25.6709C236.101 23.6269 236.375 21.766 237.229 21.8575C238.877 22.01 239.487 28.7216 239.822 32.413C240.036 34.8535 240.372 36.5619 239.731 38.6059C239.151 40.4974 238.053 41.9312 238.175 42.0227C238.389 42.1447 241.47 37.0805 242.324 37.4771C242.843 37.7212 241.927 39.6737 241.592 43.365C241.195 47.8801 242.111 48.7343 241.287 51.9375C240.799 53.7985 240.097 55.1103 239.334 56.6051C238.389 58.344 237.229 60.5405 235.094 62.493C233.111 64.3234 230.67 66.5504 227.65 66.1233C223.715 65.5437 221.884 60.8761 221.762 60.5405C222.098 60.5405 225.118 60.388 226.613 58.0695C228.504 55.1103 226.613 50.7172 224.447 49.9851C222.86 49.4359 221.61 51.0528 220.115 50.2901C218.895 49.68 218.742 48.1851 218.254 46.7818C217.613 44.9209 216.21 42.4498 212.763 39.9482C210.597 39.8567 207.393 40.0397 204.068 41.5956C201.139 42.9074 199.889 44.4938 198.455 43.9447Z" fill="#1E1E1E"/>
<path d="M198.182 49.1614C196.595 51.602 195.283 54.1951 194.368 56.9712C194.155 57.6119 193.789 58.283 194.246 58.8322C194.582 59.2287 195.405 59.3508 195.863 59.5338C196.626 59.8084 197.388 60.1135 198.151 60.388C198.7 60.6016 198.944 59.7169 198.395 59.5033C197.876 59.3203 197.388 59.1372 196.87 58.9237C196.565 58.8017 195.558 58.5881 195.344 58.344C194.704 57.7034 195.619 56.117 195.894 55.4459C196.717 53.4019 197.754 51.4799 198.975 49.619C199.31 49.1309 198.517 48.6733 198.182 49.1614Z" fill="#1E1E1E"/>
<path d="M197.969 60.0524C199.647 65.9097 201.752 72.4383 207.731 75.2144C208.25 75.4585 208.738 74.6653 208.189 74.4212C202.453 71.7366 200.47 65.4521 198.853 59.8083C198.67 59.2287 197.786 59.4727 197.969 60.0524Z" fill="#1E1E1E"/>
<path d="M207.883 75.306C213.222 76.4958 219.201 73.6281 222.771 69.8147C223.167 69.3876 222.527 68.7469 222.13 69.174C218.774 72.7434 213.131 75.55 208.127 74.4213C207.548 74.2687 207.304 75.1534 207.883 75.306Z" fill="#1E1E1E"/>
<path d="M216.639 73.6586C217.005 76.3432 217.982 78.7533 219.66 80.8888C220.026 81.3464 220.666 80.7058 220.3 80.2482C218.805 78.3262 217.89 76.0687 217.555 73.6586C217.494 73.079 216.578 73.079 216.639 73.6586Z" fill="#1E1E1E"/>
<path d="M225.365 69.7231C225.548 72.7433 226.647 75.4889 228.599 77.8075C228.965 78.2651 229.636 77.5939 229.24 77.1668C227.44 75.0313 226.433 72.4992 226.25 69.7231C226.22 69.1435 225.304 69.1435 225.365 69.7231Z" fill="#1E1E1E"/>
<path d="M220.849 51.4799C221.733 50.1376 223.411 49.9545 224.723 50.8087C225.913 51.5714 226.493 53.0357 226.584 54.3781C226.737 56.5441 225.333 60.9371 222.283 59.6253C221.733 59.3812 221.276 60.1744 221.825 60.4185C225.791 62.1269 227.896 56.9102 227.438 53.7679C227.164 51.968 226.126 50.1986 224.327 49.5884C222.71 49.0088 221.032 49.6189 220.086 51.0223C219.72 51.5104 220.513 51.968 220.849 51.4799Z" fill="#1E1E1E"/>
<path d="M217.463 74.8788C219.232 73.7501 220.758 72.3773 222.07 70.7604C222.436 70.3028 221.795 69.6621 221.429 70.1197C220.178 71.6756 218.683 73.0179 217.005 74.1162C216.517 74.4212 216.975 75.2144 217.463 74.8788Z" fill="#1E1E1E"/>
<path d="M200.773 66.0928C202.878 66.2759 204.983 65.5132 206.447 63.9573C207.393 62.9201 207.759 61.1812 205.837 61.2422C205.349 61.2727 205.197 62.0049 205.715 62.1269C206.417 62.3099 206.997 62.5845 207.576 63.0726C208.034 63.4387 208.674 62.7981 208.217 62.432C207.515 61.8523 206.844 61.4862 205.959 61.2727C205.929 61.5778 205.868 61.8828 205.837 62.1574C206.875 62.1269 205.502 63.6217 205.38 63.7438C204.892 64.1709 204.373 64.4759 203.793 64.72C202.817 65.1471 201.841 65.2691 200.773 65.1776C200.193 65.1471 200.193 66.0623 200.773 66.0928Z" fill="#1E1E1E"/>
<path d="M204.804 52.3036C204.285 51.3884 204.102 50.3816 204.346 49.3749C204.133 49.4664 203.888 49.5579 203.675 49.6495C204.499 50.2901 204.316 51.4799 204.194 52.3646C204.468 52.3341 204.743 52.3036 205.017 52.2426C204.651 51.7239 204.468 51.1748 204.468 50.5342C204.468 49.9545 203.553 49.9545 203.553 50.5342C203.553 51.3274 203.766 52.0595 204.224 52.7002C204.438 52.9747 204.987 53.0052 205.048 52.5781C205.261 51.2053 205.322 49.7715 204.102 48.8258C203.858 48.6427 203.492 48.8258 203.431 49.1003C203.126 50.3511 203.309 51.6324 203.98 52.7307C204.316 53.2798 205.109 52.8222 204.804 52.3036Z" fill="#1E1E1E"/>
<path d="M202.972 45.8361C204.466 44.0667 206.632 45.409 207.426 47.0869C207.67 47.6055 208.463 47.1479 208.219 46.6293C207.181 44.4328 204.192 43.0294 202.331 45.1955C201.934 45.6531 202.575 46.2937 202.972 45.8361Z" fill="#1E1E1E"/>
<path opacity="0.07" d="M217.676 45.3174C217.798 46.0191 217.95 47.1174 218.194 48.3987C218.866 52.029 219.445 54.1035 219.659 55.0797C220.452 58.8016 219.415 64.5369 215.632 68.2893C211.452 72.4078 205.748 72.3162 204.314 72.2552C204.954 73.0179 205.961 73.9941 207.425 74.6348C211.88 76.5872 216.395 73.7501 216.883 73.4145C216.822 75.3975 217.249 76.0686 217.676 76.2822C218.988 76.8618 221.916 74.1467 223.198 71.218C224.57 68.0452 223.869 64.9945 223.503 63.7437C221.794 61.3947 221.703 60.571 221.947 60.2964C222.313 59.8998 223.32 60.632 224.448 60.2354C225.638 59.7778 226.126 58.344 226.431 57.4593C226.828 56.2695 227.896 53.0357 225.913 51.1443C224.662 49.9545 222.618 49.741 220.696 50.4121C220.299 50.3511 219.781 50.1681 219.384 49.741C218.866 49.1918 218.866 48.5512 218.591 47.4529C218.408 46.9038 218.164 46.1716 217.676 45.3174Z" fill="#1E1E1E"/>
<path opacity="0.1" d="M221.946 65.9402C221.702 68.5638 221.062 70.6993 220.482 72.2552C221.55 71.9501 222.648 71.6145 223.716 71.3095C224.631 73.7195 225.516 76.1601 226.431 78.5702C227.102 78.2346 227.743 77.899 228.414 77.5329C227.651 75.8245 226.888 73.7195 226.278 71.279C225.76 69.2045 225.485 67.2825 225.333 65.6352C224.814 65.1165 224.204 64.4759 223.655 63.6522C222.709 62.2794 222.16 60.9981 221.824 59.9913C222.007 61.5472 222.16 63.5912 221.946 65.9402Z" fill="#1E1E1E"/>
<path opacity="0.13" d="M239.215 27.6843C238.788 27.6843 239.063 31.8943 237.263 37.0195C236.5 39.1855 235.097 43.0294 231.497 46.2632C228.934 48.5512 226.28 49.68 224.602 50.2291C225.06 50.5037 225.792 51.0223 226.341 51.907C227.684 54.0425 226.829 56.4525 226.585 57.1542C226.25 58.1304 225.792 59.4117 224.511 60.0829C223.321 60.693 222.101 60.449 221.674 60.327C221.765 60.6015 223.687 65.6657 227.684 66.0928C229.362 66.2759 230.734 65.5437 231.772 64.9945C234.487 63.5912 235.86 61.4862 237.537 58.8931C239.764 55.4458 241.32 53.0052 241.534 49.5579C241.686 46.8428 240.863 46.1411 241.442 43.548C241.625 42.7243 242.113 41.077 242.022 38.7889C241.991 38.3008 241.961 37.9042 241.93 37.6296C240.68 39.0635 239.429 40.5278 238.178 41.9617C238.605 41.138 239.154 39.8567 239.52 38.2093C239.917 36.4094 239.856 35.006 239.764 32.6875C239.734 31.3757 239.612 27.6843 239.215 27.6843Z" fill="#1E1E1E"/>
</svg>
