<svg width="1069" height="1974" viewBox="0 0 1069 1974" fill="none" xmlns="http://www.w3.org/2000/svg">
<g clip-path="url(#clip0_1375_1394)">
<rect width="1069" height="1974" fill="#FF8023"/>
<path d="M1122 -264L1122.09 184.558L1293.83 -229.822L1122.25 184.627L1439.49 -132.491L1122.37 184.75L1536.82 13.1742L1122.44 184.913L1571 185L1122.44 185.087L1536.82 356.826L1122.37 185.25L1439.49 502.49L1122.25 185.373L1293.83 599.822L1122.09 185.442L1122 634L1121.91 185.442L950.174 599.822L1121.75 185.373L804.509 502.49L1121.63 185.25L707.178 356.826L1121.56 185.087L673 185L1121.56 184.913L707.178 13.1742L1121.63 184.75L804.509 -132.491L1121.75 184.627L950.174 -229.822L1121.91 184.558L1122 -264Z" fill="#F0C3D2" stroke="white" stroke-width="4"/>
<path d="M421.056 1674.01C419.792 1677.65 412.464 1676.63 411.499 1669.72C410.028 1663.35 417.641 1653.4 429.609 1654.96C441.262 1655.66 453.582 1669.91 449.723 1686.89C446.911 1703.58 426.046 1718.53 403.95 1712.12C382.026 1707.15 364.495 1679.56 373.271 1652.56C380.347 1625.54 414.58 1605.62 446.716 1616.86C478.996 1626.08 501.55 1667.03 487.95 1704.05C476.596 1741.33 429.034 1766.39 386.844 1750.22C344.181 1736.64 316.611 1682.49 335.043 1635.4C350.693 1587.73 411.478 1557.81 463.822 1578.76C516.69 1596.68 549.559 1664.02 526.178 1721.21C506.225 1779.2 432.168 1814.12 369.738 1788.32C306.487 1766.13 268.6 1685.46 296.815 1618.23C321.072 1549.99 408.432 1509.94 480.928 1540.66C554.509 1567.15 597.464 1661.08 564.406 1738.37C535.926 1816.95 435.179 1861.97 352.632 1826.42C268.752 1795.63 220.635 1688.39 258.591 1601.07C291.382 1512.2 405.374 1462.14 498.034 1502.56C592.319 1537.69 645.348 1658.15 602.63 1755.54C565.479 1854.66 438.321 1909.89 335.526 1864.52C230.878 1825.12 172.811 1691.33 220.363 1583.91C261.808 1474.5 402.253 1414.23 515.14 1464.46C630.101 1508.16 693.291 1655.23 640.859 1772.7C595.21 1892.45 441.304 1957.66 318.42 1902.62C193.124 1854.61 124.842 1694.26 182.136 1566.75C232.11 1436.73 399.221 1366.37 532.246 1426.36C667.898 1478.63 741.188 1652.32 679.085 1789.86C624.801 1930.26 444.402 2005.47 301.314 1940.72C155.374 1884.07 76.8691 1697.25 143.908 1549.58C202.463 1398.85 396.142 1318.66 549.352 1388.26C705.615 1449.23 789.195 1649.31 717.312 1807.02C654.499 1968.03 447.417 2053.32 284.208 1978.82C117.529 1913.56 28.9846 1700.18 105.684 1532.42C172.814 1361.12 393.103 1270.78 566.458 1350.15C743.43 1419.71 837.136 1646.39 755.539 1824.19C684.167 2005.81 450.507 2101.14 267.102 2016.92C79.716 1943.02 -18.9099 1703.14 67.4562 1515.26C143.184 1323.4 390 1222.88 583.564 1312.05C781.332 1390.21 884.941 1643.44 793.766 1841.35C713.737 2043.52 453.655 2149.03 249.996 2055.02C41.9303 1972.57 -66.8601 1706.03 29.2284 1498.1C113.521 1285.6 386.936 1175.09 600.67 1273.95C819.06 1360.73 932.908 1640.51 831.993 1858.51C743.441 2081.28 456.669 2196.88 232.89 2093.12C4.12901 2002.11 -114.757 1708.94 -8.9994 1480.93C83.886 1247.8 383.871 1127.3 617.777 1235.85C856.735 1331.23 980.936 1637.55 870.22 1875.67C773.07 2119.15 459.756 2244.62 215.784 2131.22C-33.5687 2031.5 -162.765 1711.96 -47.2234 1463.77C54.1894 1210.02 380.842 1079.44 634.883 1197.75C894.589 1301.73 1028.82 1634.61 908.446 1892.84" stroke="white" stroke-width="3" stroke-linecap="round"/>
<path d="M113.987 457.035L-183.147 446.831L53.6445 335.641L-205.228 135.325L74.7544 222.633L-101.664 -58.5602L114.336 120.448L156.895 -206.683L259.114 68.0884L517.673 -80.0343L313.193 162.489L619.562 167.402L337.923 264.529L649.894 348.803L321.758 338.007L547.321 517.654L231.725 389.585L390.008 665.879L113.987 457.035Z" fill="#C8FF00"/>
<path d="M867.501 556L899.82 775.385L995.34 575.278L961.591 794.448L1111.82 631.399L1015 830.879L1206.59 719.377L1055.31 881.443L1271.23 831.394L1078.92 941.646L1300 957.495L1083.75 1006.14L1290.34 1086.48L1069.37 1069.19L1243.11 1206.89L1037.05 1125.2L1162.5 1308.01L989.66 1169.19L1055.68 1380.88L931.421 1197.25L932.143 1419L867.501 1206.89L802.858 1419L803.581 1197.25L679.32 1380.88L745.341 1169.19L572.501 1308.01L697.955 1125.2L491.894 1206.89L665.634 1069.19L444.661 1086.48L651.25 1006.14L435 957.495L656.081 941.646L463.768 831.394L679.697 881.443L528.41 719.377L720 830.879L623.181 631.399L773.411 794.448L739.661 575.278L835.181 775.385L867.501 556Z" fill="#FFA5D3"/>
</g>
<defs>
<clipPath id="clip0_1375_1394">
<rect width="1069" height="1974" fill="white"/>
</clipPath>
</defs>
</svg>
