<svg width="65" height="32" viewBox="0 0 65 32" fill="none" xmlns="http://www.w3.org/2000/svg">
<path d="M37.4939 9.29894C37.1067 9.1518 36.6735 9.34641 36.5264 9.73361C36.3792 10.1208 36.5739 10.554 36.9611 10.7011C37.3218 10.8382 37.6983 11.0704 38.0766 11.4455C38.5583 11.9231 38.8632 12.4466 39.0332 12.9978C39.1552 13.3936 39.5751 13.6155 39.9709 13.4935C40.3667 13.3714 40.5886 12.9516 40.4666 12.5557C40.2229 11.7657 39.787 11.029 39.1327 10.3803C38.6164 9.86846 38.0646 9.51583 37.4939 9.29894Z" fill="#2D264B"/>
<path fill-rule="evenodd" clip-rule="evenodd" d="M31.5509 7.51263C30.6627 6.9492 29.4466 6.36343 28.0963 6.26457C26.7084 6.16297 25.2305 6.58179 23.9029 7.93563C22.3356 9.53392 21.8439 11.5069 22.0414 13.5027C22.2365 15.4755 23.1019 17.4809 24.256 19.2579C25.4132 21.0396 26.8913 22.6393 28.3743 23.8008C29.8246 24.9368 31.4027 25.75 32.7499 25.75C34.097 25.75 35.6751 24.9368 37.1254 23.8008C38.6084 22.6393 40.0866 21.0396 41.2438 19.2579C42.3979 17.4809 43.2632 15.4755 43.4584 13.5027C43.6558 11.5069 43.1641 9.53392 41.5968 7.93563C40.2693 6.58181 38.7914 6.16299 37.4035 6.26459C36.0531 6.36344 34.837 6.94921 33.9488 7.51263C33.2484 7.95695 32.2514 7.95695 31.5509 7.51263ZM24.9739 8.98585C25.9805 7.95929 27.0212 7.68989 27.9867 7.76057C28.9898 7.834 29.962 8.28103 30.7475 8.77928C31.9384 9.53473 33.5614 9.53473 34.7523 8.77928C35.5378 8.28104 36.51 7.83402 37.513 7.76059C38.4786 7.6899 39.5192 7.95931 40.5258 8.98585C41.7291 10.2129 42.1274 11.7199 41.9657 13.355C41.8016 15.0131 41.0584 16.7894 39.9858 18.4409C38.9163 20.0876 37.5495 21.5633 36.2005 22.6199C34.8188 23.7021 33.5777 24.25 32.7499 24.25C31.922 24.25 30.6809 23.7021 29.2992 22.6199C27.9502 21.5633 26.5835 20.0876 25.5139 18.4409C24.4413 16.7894 23.6981 15.0131 23.5341 13.355C23.3723 11.7199 23.7707 10.2129 24.9739 8.98585Z" fill="#2D264B"/>
</svg>
