<svg width="16" height="16" viewBox="0 0 16 16" fill="none" xmlns="http://www.w3.org/2000/svg">
<path d="M8.00001 13.3333H1.33334V12H5.16668C4.68001 10.1267 3.20668 8.66 1.33334 8.17333C1.76001 8.06666 2.20668 8 2.66668 8C5.61334 8 8.00001 10.3867 8.00001 13.3333ZM14.6667 8.17333C14.24 8.06666 13.7933 8 13.3333 8C11.38 8 9.68001 9.05333 8.74668 10.62C8.94001 11.06 9.10001 11.52 9.19334 12C9.28001 12.4333 9.32668 12.88 9.32668 13.3333H14.66V12H10.8267C11.32 10.1267 12.7933 8.66 14.6667 8.17333ZM10.4267 7.34666C10.9467 5.95333 11.9133 4.78666 13.1533 4.01333C10.2933 4.10666 8.00001 6.44666 8.00001 9.33333C8.00001 9.34 8.00001 9.34666 8.00001 9.34666C8.63334 8.5 9.46668 7.81333 10.4267 7.34666ZM7.61334 5.9C7.05334 4.44 5.92001 3.26 4.46668 2.66666C5.42668 3.90666 6.00001 5.45333 6.00001 7.14C6.00001 7.28 5.98001 7.41333 5.97334 7.54666C6.26001 7.70666 6.52668 7.89333 6.78668 8.09333C6.92668 7.30666 7.22001 6.56666 7.61334 5.9Z" fill="#FFFCF4"/>
</svg>
