<svg width="65" height="32" viewBox="0 0 65 32" fill="none" xmlns="http://www.w3.org/2000/svg">
<path d="M27.5437 8.96556C30.2105 7.028 31.5439 6.05923 33.0667 6.00336C33.1889 5.99888 33.3111 5.99888 33.4333 6.00336C34.9561 6.05923 36.2895 7.028 38.9563 8.96556C41.6232 10.9031 42.9566 11.8719 43.4803 13.3029C43.5223 13.4177 43.5601 13.534 43.5936 13.6516C44.011 15.1171 43.5017 16.6846 42.4831 19.8197L40.762 25.1164C40.4886 25.958 39.7043 26.5279 38.8194 26.5279C37.6912 26.5279 36.7767 25.6133 36.7767 24.4852V21.7363C36.7767 20.6778 35.9186 19.8197 34.8601 19.8197H31.6399C30.5814 19.8197 29.7233 20.6778 29.7233 21.7363V24.4852C29.7233 25.6133 28.8088 26.5279 27.6807 26.5279C26.7957 26.5279 26.0114 25.958 25.738 25.1164L24.017 19.8197C22.9983 16.6846 22.489 15.1171 22.9065 13.6516C22.9399 13.534 22.9777 13.4177 23.0197 13.3029C23.5434 11.8719 24.8769 10.9031 27.5437 8.96556Z" fill="#1A1A1A"/>
</svg>
