<svg viewBox="0 0 20 20" fill="none" xmlns="http://www.w3.org/2000/svg">
<path d="M6.875 2.74918C6.07775 2.85386 5.30094 3.15971 4.625 3.66666L2.79167 5.04167C2.21461 5.47446 1.875 6.15368 1.875 6.875V14.0659C1.875 15.91 3.98034 16.9627 5.45565 15.8562C5.88523 15.534 6.37171 15.3261 6.875 15.2324V2.74918Z" fill="#FF8023"/>
<path d="M8.125 15.2324C8.62829 15.3261 9.11477 15.534 9.54435 15.8562L9.625 15.9167C10.3009 16.4236 11.0777 16.7295 11.875 16.8341V4.35096C11.3717 4.25726 10.8852 4.04934 10.4556 3.72715L10.375 3.66666C9.69906 3.15971 8.92225 2.85386 8.125 2.74918V15.2324Z" fill="#FF8023"/>
<path d="M13.125 4.35096V16.8341C13.9223 16.7295 14.6991 16.4236 15.375 15.9167L17.2083 14.5417C17.7854 14.1089 18.125 13.4297 18.125 12.7083V5.51747C18.125 3.67334 16.0197 2.62067 14.5444 3.72715C14.1148 4.04934 13.6283 4.25726 13.125 4.35096Z" fill="#FF8023"/>
</svg>
