<svg xmlns="http://www.w3.org/2000/svg" xmlns:xlink="http://www.w3.org/1999/xlink" width="1080" zoomAndPan="magnify" viewBox="0 0 810 1439.999935" height="1920" preserveAspectRatio="xMidYMid meet" version="1.0"><defs><clipPath id="c07889cfc5"><path d="M 235.480469 490.722656 L 574.480469 490.722656 L 574.480469 720 L 235.480469 720 Z M 235.480469 490.722656 " clip-rule="nonzero"/></clipPath></defs><rect x="-81" width="972" fill="transparent" y="-143.999994" height="1727.999922" fill-opacity="1"/><rect x="-81" width="972" fill="transparent" y="-143.999994" height="1727.999922" fill-opacity="1"/><path fill="#ffed74" d="M 254.414062 626.292969 L 240.878906 626.292969 L 240.878906 562.464844 L 249.976562 562.464844 L 249.976562 589.238281 L 263.511719 589.238281 L 263.511719 601.8125 L 277.042969 601.8125 L 277.042969 615.714844 L 311.65625 615.714844 L 311.65625 602.179688 L 323.269531 602.179688 L 323.269531 588.570312 L 335.105469 588.570312 L 335.105469 575.035156 L 349.378906 575.035156 L 349.378906 508.472656 L 362.617188 508.472656 L 362.617188 495.898438 L 438.871094 495.898438 L 438.871094 508.472656 L 452.109375 508.472656 L 452.109375 544.34375 L 398.488281 544.34375 L 398.488281 561.429688 L 438.871094 561.429688 L 438.871094 570.527344 L 384.433594 570.527344 L 384.433594 602.179688 L 410.394531 602.179688 L 410.394531 624.8125 L 402.332031 624.8125 L 402.332031 611.203125 L 384.433594 611.203125 L 384.433594 638.199219 L 371.863281 638.199219 L 371.863281 649.8125 L 358.402344 649.8125 L 358.402344 705.800781 L 371.9375 705.800781 L 371.9375 714.820312 L 349.304688 714.820312 L 349.304688 690.339844 L 335.769531 690.339844 L 335.769531 676.140625 L 317.722656 676.140625 L 317.722656 690.339844 L 304.1875 690.339844 L 304.1875 705.800781 L 317.722656 705.800781 L 317.722656 714.820312 L 295.089844 714.820312 L 295.089844 665.34375 L 281.554688 665.34375 L 281.554688 651.4375 L 267.949219 651.4375 L 267.949219 638.863281 L 254.414062 638.863281 Z M 388.726562 521.046875 L 388.726562 503.960938 L 371.640625 503.960938 L 371.640625 521.046875 Z M 388.726562 521.046875 " fill-opacity="1" fill-rule="evenodd"/><path fill="#ff6d37" d="M 510.316406 622.371094 L 486.128906 622.371094 L 486.128906 614.089844 L 479.179688 614.089844 L 479.179688 606.839844 L 472.667969 606.839844 L 472.667969 561.207031 L 479.179688 561.207031 L 479.179688 554.625 L 487.238281 554.625 L 487.238281 561.207031 L 493.75 561.207031 L 493.75 596.117188 L 510.316406 596.117188 L 510.316406 532.730469 L 516.824219 532.730469 L 516.824219 526.074219 L 524.886719 526.074219 L 524.886719 532.730469 L 531.394531 532.730469 L 531.394531 629.175781 L 547.886719 629.175781 L 547.886719 561.207031 L 554.394531 561.207031 L 554.394531 554.625 L 562.53125 554.625 L 562.53125 561.207031 L 569.039062 561.207031 L 569.039062 639.972656 L 562.53125 639.972656 L 562.53125 647.222656 L 555.578125 647.222656 L 555.578125 655.507812 L 531.46875 655.507812 L 531.46875 714.820312 L 510.316406 714.820312 Z M 510.316406 622.371094 " fill-opacity="1" fill-rule="evenodd"/><g clip-path="url(#c07889cfc5)"><path fill="#000000" d="M 550.773438 714.082031 L 563.714844 714.082031 L 563.714844 720 L 550.773438 720 Z M 456.25 701.363281 L 479.769531 701.363281 L 479.769531 707.277344 L 456.25 707.277344 Z M 259.960938 701.363281 L 277.191406 701.363281 L 277.191406 707.277344 L 259.960938 707.277344 Z M 418.234375 714.082031 L 431.179688 714.082031 L 431.179688 720 L 418.234375 720 Z M 238.585938 714.082031 L 249.976562 714.082031 L 249.976562 720 L 238.585938 720 Z M 530.804688 714.082031 L 530.804688 654.765625 L 554.988281 654.765625 L 554.988281 646.484375 L 561.941406 646.484375 L 561.941406 639.234375 L 568.449219 639.234375 L 568.449219 561.871094 L 561.941406 561.871094 L 561.941406 555.289062 L 555.285156 555.289062 L 555.285156 561.871094 L 548.773438 561.871094 L 548.773438 629.839844 L 530.875 629.839844 L 530.875 533.472656 L 524.367188 533.472656 L 524.367188 526.816406 L 517.710938 526.816406 L 517.710938 533.472656 L 511.203125 533.472656 L 511.203125 596.855469 L 493.230469 596.855469 L 493.230469 561.945312 L 486.722656 561.945312 L 486.722656 555.363281 L 480.066406 555.363281 L 480.066406 561.945312 L 473.558594 561.945312 L 473.558594 606.101562 L 480.066406 606.101562 L 480.066406 613.347656 L 487.019531 613.347656 L 487.019531 621.632812 L 511.203125 621.632812 L 511.203125 714.082031 Z M 371.269531 706.464844 L 357.734375 706.464844 L 357.734375 649.070312 L 371.195312 649.070312 L 371.195312 637.460938 L 383.769531 637.460938 L 383.769531 610.539062 L 403.074219 610.539062 L 403.074219 624.148438 L 409.730469 624.148438 L 409.730469 602.921875 L 383.769531 602.921875 L 383.769531 569.859375 L 438.203125 569.859375 L 438.203125 562.167969 L 397.820312 562.167969 L 397.820312 543.679688 L 451.441406 543.679688 L 451.441406 509.210938 L 438.203125 509.210938 L 438.203125 496.640625 L 363.355469 496.640625 L 363.355469 509.210938 L 350.117188 509.210938 L 350.117188 575.703125 L 335.84375 575.703125 L 335.84375 589.238281 L 324.007812 589.238281 L 324.007812 602.847656 L 312.398438 602.847656 L 312.398438 616.453125 L 276.378906 616.453125 L 276.378906 602.550781 L 262.769531 602.550781 L 262.769531 589.976562 L 249.234375 589.976562 L 249.234375 563.203125 L 241.542969 563.203125 L 241.542969 625.625 L 255.078125 625.625 L 255.078125 638.199219 L 268.613281 638.199219 L 268.613281 650.773438 L 282.222656 650.773438 L 282.222656 664.675781 L 295.757812 664.675781 L 295.757812 714.082031 L 316.984375 714.082031 L 316.984375 706.464844 L 303.449219 706.464844 L 303.449219 689.601562 L 316.984375 689.601562 L 316.984375 675.402344 L 336.507812 675.402344 L 336.507812 689.601562 L 350.042969 689.601562 L 350.042969 714.082031 L 371.269531 714.082031 Z M 322.972656 689.601562 L 322.972656 681.316406 L 330.59375 681.316406 L 330.59375 689.601562 Z M 560.90625 660.683594 L 560.90625 652.398438 L 567.855469 652.398438 L 567.855469 645.152344 L 574.367188 645.152344 L 574.367188 555.957031 L 567.855469 555.957031 L 567.855469 549.371094 L 549.367188 549.371094 L 549.367188 555.957031 L 542.859375 555.957031 L 542.859375 624 L 536.792969 624 L 536.792969 527.554688 L 530.285156 527.554688 L 530.285156 520.972656 L 511.796875 520.972656 L 511.796875 527.554688 L 505.285156 527.554688 L 505.285156 590.9375 L 499.148438 590.9375 L 499.148438 556.027344 L 492.640625 556.027344 L 492.640625 549.445312 L 474.148438 549.445312 L 474.148438 556.027344 L 467.640625 556.027344 L 467.640625 612.015625 L 474.148438 612.015625 L 474.148438 619.265625 L 481.101562 619.265625 L 481.101562 627.550781 L 505.285156 627.550781 L 505.285156 689.527344 L 363.652344 689.527344 L 363.652344 654.914062 L 377.039062 654.914062 L 377.039062 643.300781 L 389.613281 643.300781 L 389.613281 616.453125 L 397.082031 616.453125 L 397.082031 630.0625 L 415.574219 630.0625 L 415.574219 597.003906 L 389.613281 597.003906 L 389.613281 575.777344 L 444.046875 575.777344 L 444.046875 556.25 L 403.664062 556.25 L 403.664062 549.59375 L 457.285156 549.59375 L 457.285156 503.296875 L 444.046875 503.296875 L 444.046875 490.722656 L 357.441406 490.722656 L 357.441406 503.296875 L 344.199219 503.296875 L 344.199219 569.785156 L 329.925781 569.785156 L 329.925781 583.320312 L 318.09375 583.320312 L 318.09375 596.929688 L 306.480469 596.929688 L 306.480469 610.539062 L 282.296875 610.539062 L 282.296875 596.632812 L 268.6875 596.632812 L 268.6875 584.058594 L 255.152344 584.058594 L 255.152344 557.285156 L 235.625 557.285156 L 235.625 631.542969 L 249.160156 631.542969 L 249.160156 644.117188 L 262.695312 644.117188 L 262.695312 656.6875 L 276.230469 656.6875 L 276.230469 670.59375 L 289.765625 670.59375 L 289.765625 689.675781 L 238.585938 689.675781 L 238.585938 695.59375 L 289.914062 695.59375 L 289.914062 720 L 322.972656 720 L 322.972656 700.546875 L 309.4375 700.546875 L 309.4375 695.519531 L 344.199219 695.519531 L 344.199219 720 L 377.261719 720 L 377.261719 700.546875 L 363.726562 700.546875 L 363.726562 695.519531 L 505.210938 695.519531 L 505.210938 720 L 536.792969 720 L 536.792969 695.519531 L 571.40625 695.519531 L 571.40625 689.601562 L 536.71875 689.601562 L 536.71875 660.683594 Z M 383.472656 515.867188 L 376.816406 515.867188 L 376.816406 509.210938 L 383.472656 509.210938 Z M 389.390625 503.296875 L 389.390625 521.785156 L 370.898438 521.785156 L 370.898438 503.296875 Z M 389.390625 503.296875 " fill-opacity="1" fill-rule="evenodd"/></g></svg>