<svg width="65" height="32" viewBox="0 0 65 32" fill="none" xmlns="http://www.w3.org/2000/svg">
<path fill-rule="evenodd" clip-rule="evenodd" d="M35.7815 5.25076C34.8366 5.23199 33.7863 5.56337 32.0619 6.1074L31.8372 6.17826C31.1621 6.39107 30.7467 6.522 30.3623 6.70945C29.5677 7.09696 28.8731 7.66249 28.3326 8.36209C28.0711 8.70051 27.8587 9.08071 27.5135 9.69862L25.0681 14.0749C24.2894 15.4679 23.8142 16.318 23.632 17.1539C23.2294 19.0007 23.7602 20.9274 25.0518 22.3075C25.6363 22.9321 26.4798 23.4189 27.862 24.2167L28.1237 24.3678C29.5057 25.166 30.3491 25.653 31.1823 25.8469C33.0232 26.2754 34.9572 25.7717 36.3553 24.4997C36.9881 23.924 37.4867 23.0874 38.3038 21.7165L40.871 17.4106C41.2336 16.8027 41.4566 16.4286 41.619 16.033C41.9546 15.2151 42.097 14.3308 42.0353 13.4488C42.0054 13.0222 41.9111 12.597 41.7579 11.906L41.7069 11.676C41.3159 9.9106 41.0777 8.83527 40.589 8.02633C39.5688 6.33765 37.7541 5.28992 35.7815 5.25076ZM32.3474 7.59019C34.2899 6.9777 35.0859 6.73724 35.7518 6.75046C37.2097 6.77941 38.551 7.55382 39.3051 8.80197C39.6495 9.37202 39.8392 10.1816 40.28 12.1701C40.4508 12.9404 40.5178 13.2516 40.539 13.5536C40.5846 14.2054 40.4793 14.859 40.2312 15.4636C40.1163 15.7437 39.9549 16.0181 39.5509 16.6957L37.0928 20.8186C36.1736 22.3602 35.7921 22.9842 35.3459 23.3902C34.3125 24.3304 32.883 24.7027 31.5223 24.386C30.9347 24.2492 30.2973 23.8906 28.7429 22.9932C27.1885 22.0957 26.5592 21.723 26.147 21.2826C25.1924 20.2625 24.8 18.8384 25.0976 17.4733C25.2261 16.8839 25.5757 16.2416 26.4512 14.6747L28.7927 10.4844C29.1775 9.79572 29.3345 9.51876 29.5195 9.2792C29.9191 8.76211 30.4325 8.34411 31.0198 8.05769C31.2919 7.92499 31.5949 7.82744 32.3474 7.59019Z" fill="#2D264B"/>
<path fill-rule="evenodd" clip-rule="evenodd" d="M32.5067 11.2062C31.8164 12.4019 32.2261 13.9309 33.4218 14.6213C34.6175 15.3116 36.1465 14.9019 36.8369 13.7062C37.5272 12.5105 37.1175 10.9815 35.9218 10.2911C34.7261 9.60077 33.1971 10.0105 32.5067 11.2062ZM33.8058 11.9562C33.5296 12.4345 33.6935 13.0461 34.1718 13.3222C34.6501 13.5984 35.2617 13.4345 35.5378 12.9562C35.814 12.4779 35.6501 11.8663 35.1718 11.5902C34.6935 11.314 34.0819 11.4779 33.8058 11.9562Z" fill="#2D264B"/>
</svg>
