<svg width="65" height="32" viewBox="0 0 65 32" fill="none" xmlns="http://www.w3.org/2000/svg">
<path fill-rule="evenodd" clip-rule="evenodd" d="M29.75 5.25C30.1642 5.25 30.5 5.58579 30.5 6V7.26061C31.1692 7.25 31.9128 7.25 32.7389 7.25H32.7611C33.5872 7.25 34.3308 7.25 35 7.26061V6C35 5.58579 35.3358 5.25 35.75 5.25C36.1642 5.25 36.5 5.58579 36.5 6V7.31358C38.0119 7.40837 39.1734 7.65335 40.1298 8.34815C40.6179 8.70281 41.0472 9.13209 41.4018 9.62023C41.9877 10.4266 42.25 11.3709 42.3763 12.5365C42.5 13.6786 42.5 15.1182 42.5 16.9547V17.0115C42.5 18.1713 42.5 19.1686 42.4706 20.0257C42.4064 21.8991 42.2037 23.2761 41.4018 24.3798C41.0472 24.8679 40.6179 25.2972 40.1298 25.6518C39.0261 26.4537 37.6491 26.6564 35.7757 26.7206C34.9184 26.75 33.921 26.75 32.7608 26.75H32.7047C30.8682 26.75 29.4286 26.75 28.2865 26.6263C27.1209 26.5 26.1766 26.2377 25.3702 25.6518C24.8821 25.2972 24.4528 24.8679 24.0982 24.3798C23.5123 23.5734 23.25 22.6291 23.1237 21.4635C23 20.3214 23 18.8818 23 17.0452V16.9548C23 15.1182 23 13.6786 23.1237 12.5365C23.25 11.3709 23.5123 10.4266 24.0982 9.62023C24.4528 9.13209 24.8821 8.70281 25.3702 8.34815C26.3266 7.65335 27.4881 7.40837 29 7.31358V6C29 5.58579 29.3358 5.25 29.75 5.25ZM29 8.81725C27.6379 8.91092 26.8518 9.12585 26.2519 9.56168C25.8911 9.82382 25.5738 10.1411 25.3117 10.5019C24.9426 11.0099 24.7275 11.6601 24.615 12.698C24.501 13.75 24.5 15.1084 24.5 17C24.5 18.8916 24.501 20.25 24.615 21.302C24.7275 22.3399 24.9426 22.9901 25.3117 23.4981C25.5738 23.8589 25.8911 24.1762 26.2519 24.4383C26.7599 24.8074 27.4101 25.0225 28.448 25.135C29.5 25.249 30.8584 25.25 32.75 25.25C33.5983 25.25 34.3418 25.2499 35.0018 25.2392C35.0062 24.7645 35.021 24.4151 35.0708 24.1005C35.4605 21.6401 37.3901 19.7105 39.8505 19.3208C40.1651 19.271 40.5145 19.2562 40.9892 19.2518C41 18.5918 41 17.8483 41 17C41 15.1084 40.999 13.75 40.885 12.698C40.7725 11.6601 40.5574 11.0099 40.1883 10.5019C39.9262 10.1411 39.6089 9.82382 39.2481 9.56168C38.6482 9.12585 37.8621 8.91092 36.5 8.81725V9C36.5 9.41421 36.1642 9.75 35.75 9.75C35.3358 9.75 35 9.41421 35 9V8.76079C34.3404 8.75005 33.5976 8.75 32.75 8.75C31.9024 8.75 31.1596 8.75005 30.5 8.76079V9C30.5 9.41421 30.1642 9.75 29.75 9.75C29.3358 9.75 29 9.41421 29 9V8.81725ZM40.9326 20.7528C40.5276 20.7575 40.2902 20.7699 40.0852 20.8023C38.2666 21.0904 36.8404 22.5166 36.5523 24.3352C36.5199 24.5402 36.5075 24.7776 36.5028 25.1826C37.8631 25.0888 38.6486 24.8738 39.2481 24.4383C39.6089 24.1762 39.9262 23.8589 40.1883 23.4981C40.6239 22.8986 40.8388 22.1131 40.9326 20.7528Z" fill="#2D264B"/>
<path d="M28.75 13C28.75 13.5523 28.3023 14 27.75 14C27.1977 14 26.75 13.5523 26.75 13C26.75 12.4477 27.1977 12 27.75 12C28.3023 12 28.75 12.4477 28.75 13Z" fill="#2D264B"/>
<path d="M28.75 17C28.75 17.5523 28.3023 18 27.75 18C27.1977 18 26.75 17.5523 26.75 17C26.75 16.4477 27.1977 16 27.75 16C28.3023 16 28.75 16.4477 28.75 17Z" fill="#2D264B"/>
<path d="M33.75 13C33.75 13.5523 33.3023 14 32.75 14C32.1977 14 31.75 13.5523 31.75 13C31.75 12.4477 32.1977 12 32.75 12C33.3023 12 33.75 12.4477 33.75 13Z" fill="#2D264B"/>
<path d="M33.75 17C33.75 17.5523 33.3023 18 32.75 18C32.1977 18 31.75 17.5523 31.75 17C31.75 16.4477 32.1977 16 32.75 16C33.3023 16 33.75 16.4477 33.75 17Z" fill="#2D264B"/>
<path d="M33.75 21C33.75 21.5523 33.3023 22 32.75 22C32.1977 22 31.75 21.5523 31.75 21C31.75 20.4477 32.1977 20 32.75 20C33.3023 20 33.75 20.4477 33.75 21Z" fill="#2D264B"/>
<path d="M38.75 13C38.75 13.5523 38.3023 14 37.75 14C37.1977 14 36.75 13.5523 36.75 13C36.75 12.4477 37.1977 12 37.75 12C38.3023 12 38.75 12.4477 38.75 13Z" fill="#2D264B"/>
<path d="M38.75 17C38.75 17.5523 38.3023 18 37.75 18C37.1977 18 36.75 17.5523 36.75 17C36.75 16.4477 37.1977 16 37.75 16C38.3023 16 38.75 16.4477 38.75 17Z" fill="#2D264B"/>
<path d="M28.75 21C28.75 21.5523 28.3023 22 27.75 22C27.1977 22 26.75 21.5523 26.75 21C26.75 20.4477 27.1977 20 27.75 20C28.3023 20 28.75 20.4477 28.75 21Z" fill="#2D264B"/>
</svg>
